<?xml version="1.0" encoding="utf-8"?>
<!-- Generator: Adobe Illustrator 16.0.0, SVG Export Plug-In . SVG Version: 6.00 Build 0)  -->
<!DOCTYPE svg PUBLIC "-//W3C//DTD SVG 1.1//EN" "http://www.w3.org/Graphics/SVG/1.1/DTD/svg11.dtd">
<svg version="1.1" id="Layer_1" xmlns="http://www.w3.org/2000/svg" xmlns:xlink="http://www.w3.org/1999/xlink" x="0px" y="0px"
	 width="421.892px" height="43.968px" viewBox="0 0 421.892 43.968" enable-background="new 0 0 421.892 43.968"
	 xml:space="preserve">
<g opacity="0.3">
	<path d="M4.407,31.169V6.831h7.354l4.416,16.602l4.366-16.602h7.371v24.338H23.35V12.01l-4.831,19.159h-4.731L8.973,12.01v19.159
		H4.407z"/>
	<path d="M31.684,22.104c0-1.55,0.382-3.049,1.146-4.5c0.764-1.449,1.845-2.556,3.246-3.32c1.4-0.764,2.963-1.146,4.69-1.146
		c2.667,0,4.853,0.866,6.558,2.598c1.704,1.732,2.557,3.921,2.557,6.566c0,2.667-0.861,4.878-2.582,6.632
		c-1.721,1.755-3.888,2.632-6.5,2.632c-1.616,0-3.157-0.365-4.624-1.096c-1.467-0.73-2.582-1.802-3.345-3.213
		S31.684,24.13,31.684,22.104z M36.465,22.353c0,1.75,0.415,3.088,1.245,4.018s1.854,1.395,3.071,1.395
		c1.217,0,2.238-0.465,3.063-1.395c0.824-0.93,1.237-2.279,1.237-4.051c0-1.727-0.413-3.055-1.237-3.984
		c-0.825-0.93-1.846-1.395-3.063-1.395c-1.218,0-2.241,0.465-3.071,1.395S36.465,20.604,36.465,22.353z"/>
	<path d="M53.332,31.169V6.831h4.665v8.766c1.438-1.638,3.143-2.457,5.113-2.457c2.147,0,3.923,0.778,5.329,2.333
		c1.405,1.555,2.108,3.788,2.108,6.699c0,3.01-0.717,5.328-2.15,6.955c-1.434,1.627-3.174,2.441-5.221,2.441
		c-1.007,0-2-0.252-2.98-0.756s-1.824-1.248-2.532-2.232v2.59H53.332z M57.964,21.972c0,1.826,0.288,3.176,0.863,4.051
		c0.808,1.239,1.881,1.859,3.221,1.859c1.029,0,1.906-0.44,2.631-1.32c0.725-0.88,1.087-2.266,1.087-4.158
		c0-2.015-0.365-3.467-1.096-4.358c-0.73-0.891-1.666-1.337-2.806-1.337c-1.118,0-2.048,0.436-2.789,1.304
		C58.334,18.881,57.964,20.2,57.964,21.972z"/>
	<path d="M74.3,11.147V6.831h4.665v4.316H74.3z M74.3,31.169V13.538h4.665v17.631H74.3z"/>
	<path d="M83.746,31.169V6.831h4.665v24.338H83.746z"/>
	<path d="M103.402,25.558l4.648,0.779c-0.598,1.705-1.542,3.003-2.831,3.894c-1.29,0.892-2.903,1.337-4.839,1.337
		c-3.066,0-5.335-1.002-6.807-3.006c-1.162-1.604-1.743-3.629-1.743-6.076c0-2.922,0.764-5.209,2.291-6.864
		c1.527-1.654,3.458-2.482,5.794-2.482c2.623,0,4.692,0.866,6.209,2.598c1.516,1.732,2.241,4.386,2.175,7.961H96.612
		c0.033,1.383,0.409,2.459,1.129,3.229c0.719,0.77,1.616,1.154,2.689,1.154c0.73,0,1.345-0.199,1.843-0.598
		S103.147,26.442,103.402,25.558z M103.668,20.843c-0.033-1.351-0.382-2.377-1.046-3.08s-1.472-1.055-2.424-1.055
		c-1.019,0-1.859,0.371-2.523,1.113c-0.664,0.741-0.991,1.748-0.979,3.021H103.668z"/>
	<path d="M143.113,28.196l-2.822,3.604c-1.384-0.676-2.712-1.605-3.984-2.789c-0.985,0.885-2.031,1.538-3.138,1.959
		c-1.107,0.42-2.424,0.631-3.951,0.631c-3.033,0-5.313-0.853-6.84-2.557c-1.185-1.317-1.776-2.834-1.776-4.549
		c0-1.561,0.465-2.964,1.395-4.209s2.318-2.326,4.167-3.246c-0.83-0.984-1.456-1.922-1.876-2.813
		c-0.421-0.891-0.631-1.735-0.631-2.532c0-1.472,0.589-2.72,1.768-3.744c1.179-1.023,2.858-1.536,5.039-1.536
		c2.103,0,3.746,0.537,4.931,1.61c1.184,1.074,1.776,2.385,1.776,3.935c0,0.985-0.293,1.92-0.88,2.806
		c-0.587,0.886-1.771,1.887-3.553,3.004l3.387,4.467c0.398-0.709,0.741-1.633,1.029-2.773l4.217,0.963
		c-0.421,1.494-0.786,2.588-1.096,3.279c-0.31,0.691-0.642,1.27-0.996,1.734c0.52,0.488,1.192,1.021,2.017,1.603
		C142.12,27.624,142.726,28.009,143.113,28.196z M128.587,20.028c-1.074,0.543-1.876,1.195-2.407,1.959s-0.797,1.545-0.797,2.342
		c0,1.007,0.329,1.828,0.988,2.465c0.658,0.637,1.541,0.955,2.648,0.955c0.73,0,1.433-0.145,2.108-0.432
		c0.675-0.288,1.411-0.764,2.208-1.428L128.587,20.028z M130.413,14.965l1.262-0.963c0.93-0.719,1.395-1.433,1.395-2.142
		c0-0.598-0.224-1.106-0.672-1.527c-0.448-0.42-1.054-0.631-1.818-0.631c-0.742,0-1.323,0.186-1.743,0.556
		c-0.421,0.371-0.631,0.8-0.631,1.287c0,0.576,0.354,1.273,1.063,2.092L130.413,14.965z"/>
	<path d="M166.903,22.22v-4.1h10.592v9.695c-1.029,0.996-2.521,1.873-4.474,2.631c-1.954,0.758-3.932,1.137-5.935,1.137
		c-2.546,0-4.765-0.533-6.657-1.602s-3.315-2.596-4.267-4.582c-0.952-1.986-1.428-4.147-1.428-6.482
		c0-2.535,0.531-4.787,1.594-6.757c1.063-1.97,2.617-3.48,4.665-4.532c1.561-0.808,3.503-1.212,5.827-1.212
		c3.021,0,5.381,0.634,7.081,1.901c1.699,1.268,2.792,3.019,3.279,5.254l-4.881,0.913c-0.343-1.195-0.988-2.139-1.934-2.831
		c-0.946-0.691-2.128-1.038-3.544-1.038c-2.147,0-3.854,0.681-5.122,2.042c-1.268,1.361-1.901,3.381-1.901,6.06
		c0,2.889,0.642,5.055,1.926,6.499c1.284,1.444,2.966,2.167,5.047,2.167c1.029,0,2.061-0.202,3.096-0.606
		c1.035-0.403,1.923-0.894,2.665-1.47V22.22H166.903z"/>
	<path d="M185.48,18.917l-4.233-0.764c0.476-1.705,1.295-2.966,2.457-3.786c1.162-0.819,2.889-1.229,5.18-1.229
		c2.081,0,3.63,0.247,4.648,0.739c1.018,0.493,1.735,1.118,2.15,1.876c0.415,0.759,0.623,2.149,0.623,4.175l-0.05,5.445
		c0,1.551,0.075,2.693,0.224,3.429c0.149,0.736,0.429,1.524,0.838,2.366h-4.615c-0.122-0.311-0.271-0.77-0.448-1.379
		c-0.078-0.275-0.133-0.459-0.166-0.547c-0.797,0.774-1.649,1.355-2.557,1.742c-0.908,0.388-1.876,0.582-2.905,0.582
		c-1.815,0-3.246-0.492-4.292-1.479c-1.046-0.984-1.569-2.229-1.569-3.734c0-0.996,0.238-1.885,0.714-2.665
		c0.476-0.78,1.143-1.378,2-1.793c0.857-0.415,2.094-0.777,3.71-1.087c2.18-0.41,3.691-0.791,4.532-1.146v-0.465
		c0-0.896-0.222-1.535-0.664-1.917c-0.443-0.382-1.278-0.573-2.507-0.573c-0.83,0-1.478,0.164-1.942,0.49
		S185.768,18.098,185.48,18.917z M191.723,22.702c-0.598,0.199-1.544,0.438-2.839,0.713c-1.295,0.277-2.142,0.549-2.54,0.814
		c-0.609,0.432-0.913,0.979-0.913,1.643c0,0.654,0.243,1.219,0.73,1.693c0.487,0.477,1.106,0.715,1.859,0.715
		c0.841,0,1.644-0.277,2.407-0.83c0.564-0.421,0.935-0.936,1.112-1.545c0.122-0.398,0.183-1.156,0.183-2.273V22.702z"/>
	<path d="M200.555,13.538h4.3v2.407c1.538-1.87,3.37-2.806,5.495-2.806c1.128,0,2.109,0.232,2.939,0.697s1.51,1.168,2.041,2.108
		c0.775-0.94,1.611-1.644,2.508-2.108s1.854-0.697,2.871-0.697c1.295,0,2.391,0.263,3.287,0.789c0.896,0.526,1.566,1.298,2.01,2.315
		c0.32,0.754,0.48,1.971,0.48,3.652v11.273h-4.664V21.091c0-1.748-0.161-2.877-0.482-3.387c-0.432-0.664-1.096-0.996-1.992-0.996
		c-0.652,0-1.268,0.199-1.842,0.598c-0.576,0.398-0.991,0.982-1.246,1.752c-0.254,0.77-0.381,1.984-0.381,3.645v8.467h-4.666v-9.662
		c0-1.716-0.082-2.822-0.248-3.32s-0.424-0.869-0.772-1.113c-0.349-0.242-0.822-0.365-1.419-0.365c-0.72,0-1.367,0.194-1.942,0.582
		c-0.576,0.387-0.988,0.945-1.237,1.676s-0.374,1.943-0.374,3.637v8.566h-4.665V13.538z"/>
	<path d="M241.345,25.558l4.648,0.779c-0.598,1.705-1.542,3.003-2.831,3.894c-1.29,0.892-2.903,1.337-4.839,1.337
		c-3.066,0-5.336-1.002-6.807-3.006c-1.162-1.604-1.744-3.629-1.744-6.076c0-2.922,0.764-5.209,2.291-6.864
		c1.527-1.654,3.459-2.482,5.795-2.482c2.623,0,4.691,0.866,6.209,2.598c1.516,1.732,2.24,4.386,2.174,7.961h-11.688
		c0.033,1.383,0.41,2.459,1.129,3.229c0.72,0.77,1.616,1.154,2.689,1.154c0.73,0,1.346-0.199,1.844-0.598
		S241.089,26.442,241.345,25.558z M241.611,20.843c-0.033-1.351-0.383-2.377-1.047-3.08s-1.472-1.055-2.424-1.055
		c-1.018,0-1.859,0.371-2.523,1.113c-0.664,0.741-0.99,1.748-0.979,3.021H241.611z"/>
	<path d="M259.507,6.831h8.98c2.025,0,3.57,0.155,4.633,0.465c1.428,0.421,2.65,1.168,3.668,2.241
		c1.019,1.074,1.793,2.388,2.324,3.943c0.531,1.555,0.797,3.473,0.797,5.752c0,2.004-0.248,3.73-0.746,5.18
		c-0.609,1.771-1.479,3.205-2.607,4.301c-0.852,0.83-2.003,1.477-3.453,1.941c-1.084,0.344-2.534,0.516-4.35,0.516h-9.246V6.831z
		 M264.421,10.948v16.12h3.668c1.373,0,2.363-0.076,2.973-0.232c0.797-0.199,1.457-0.536,1.983-1.012
		c0.525-0.477,0.954-1.26,1.286-2.35s0.498-2.576,0.498-4.457c0-1.882-0.166-3.326-0.498-4.333
		c-0.332-1.007-0.797-1.793-1.395-2.357s-1.355-0.946-2.273-1.146c-0.688-0.155-2.031-0.232-4.035-0.232H264.421z"/>
	<path d="M294.253,25.558l4.648,0.779c-0.598,1.705-1.541,3.003-2.83,3.894c-1.289,0.892-2.902,1.337-4.84,1.337
		c-3.065,0-5.334-1.002-6.807-3.006c-1.162-1.604-1.742-3.629-1.742-6.076c0-2.922,0.764-5.209,2.291-6.864
		c1.527-1.654,3.458-2.482,5.793-2.482c2.623,0,4.693,0.866,6.209,2.598c1.517,1.732,2.242,4.386,2.176,7.961h-11.688
		c0.033,1.383,0.408,2.459,1.129,3.229c0.719,0.77,1.615,1.154,2.689,1.154c0.73,0,1.344-0.199,1.842-0.598
		S294,26.442,294.253,25.558z M294.519,20.843c-0.033-1.351-0.381-2.377-1.045-3.08s-1.473-1.055-2.424-1.055
		c-1.02,0-1.859,0.371-2.523,1.113c-0.664,0.741-0.991,1.748-0.98,3.021H294.519z"/>
	<path d="M307.8,31.169l-7.105-17.631h4.898l3.32,8.999l0.963,3.004c0.254-0.764,0.414-1.267,0.48-1.51
		c0.155-0.498,0.321-0.996,0.498-1.494l3.354-8.999h4.799l-7.006,17.631H307.8z"/>
	<path d="M332.072,25.558l4.648,0.779c-0.598,1.705-1.541,3.003-2.83,3.894c-1.289,0.892-2.902,1.337-4.84,1.337
		c-3.065,0-5.334-1.002-6.807-3.006c-1.162-1.604-1.742-3.629-1.742-6.076c0-2.922,0.764-5.209,2.291-6.864
		c1.527-1.654,3.458-2.482,5.793-2.482c2.623,0,4.693,0.866,6.209,2.598c1.517,1.732,2.242,4.386,2.176,7.961h-11.688
		c0.033,1.383,0.408,2.459,1.129,3.229c0.719,0.77,1.615,1.154,2.689,1.154c0.73,0,1.344-0.199,1.842-0.598
		S331.818,26.442,332.072,25.558z M332.337,20.843c-0.033-1.351-0.381-2.377-1.045-3.08s-1.473-1.055-2.424-1.055
		c-1.02,0-1.859,0.371-2.523,1.113c-0.664,0.741-0.991,1.748-0.98,3.021H332.337z"/>
	<path d="M340.771,31.169V6.831h4.666v24.338H340.771z"/>
	<path d="M349.138,22.104c0-1.55,0.383-3.049,1.146-4.5c0.764-1.449,1.845-2.556,3.245-3.32c1.399-0.764,2.964-1.146,4.69-1.146
		c2.666,0,4.853,0.866,6.557,2.598c1.705,1.732,2.557,3.921,2.557,6.566c0,2.667-0.86,4.878-2.581,6.632
		c-1.722,1.755-3.888,2.632-6.499,2.632c-1.617,0-3.158-0.365-4.624-1.096c-1.467-0.73-2.581-1.802-3.345-3.213
		S349.138,24.13,349.138,22.104z M353.919,22.353c0,1.75,0.416,3.088,1.246,4.018s1.854,1.395,3.07,1.395
		c1.218,0,2.238-0.465,3.063-1.395c0.824-0.93,1.237-2.279,1.237-4.051c0-1.727-0.413-3.055-1.237-3.984
		c-0.825-0.93-1.846-1.395-3.063-1.395c-1.217,0-2.24,0.465-3.07,1.395S353.919,20.604,353.919,22.353z"/>
	<path d="M370.853,13.538h4.35v2.59c0.564-0.885,1.328-1.604,2.291-2.158c0.963-0.553,2.031-0.83,3.205-0.83
		c2.047,0,3.785,0.803,5.213,2.407c1.428,1.605,2.141,3.841,2.141,6.707c0,2.945-0.719,5.232-2.158,6.865
		c-1.438,1.633-3.182,2.449-5.229,2.449c-0.975,0-1.857-0.194-2.648-0.582c-0.791-0.387-1.625-1.051-2.498-1.992v8.883h-4.666
		V13.538z M375.468,22.054c0,1.982,0.393,3.445,1.18,4.392c0.785,0.946,1.742,1.419,2.871,1.419c1.086,0,1.986-0.434,2.707-1.303
		c0.719-0.869,1.078-2.293,1.078-4.275c0-1.848-0.371-3.221-1.111-4.117c-0.742-0.896-1.66-1.344-2.756-1.344
		c-1.141,0-2.086,0.439-2.84,1.319C375.845,19.024,375.468,20.327,375.468,22.054z"/>
	<path d="M401.964,25.558l4.648,0.779c-0.598,1.705-1.541,3.003-2.83,3.894c-1.29,0.892-2.903,1.337-4.84,1.337
		c-3.065,0-5.335-1.002-6.807-3.006c-1.162-1.604-1.743-3.629-1.743-6.076c0-2.922,0.764-5.209,2.291-6.864
		c1.527-1.654,3.459-2.482,5.794-2.482c2.623,0,4.692,0.866,6.209,2.598c1.517,1.732,2.241,4.386,2.175,7.961h-11.688
		c0.033,1.383,0.409,2.459,1.129,3.229s1.616,1.154,2.689,1.154c0.73,0,1.345-0.199,1.843-0.598S401.709,26.442,401.964,25.558z
		 M402.23,20.843c-0.033-1.351-0.382-2.377-1.046-3.08s-1.472-1.055-2.424-1.055c-1.019,0-1.859,0.371-2.523,1.113
		c-0.664,0.741-0.99,1.748-0.979,3.021H402.23z"/>
	<path d="M415.13,31.169h-4.665V13.538h4.333v2.507c0.741-1.184,1.408-1.964,2-2.341c0.593-0.376,1.265-0.564,2.018-0.564
		c1.063,0,2.086,0.293,3.071,0.88l-1.444,4.068c-0.786-0.51-1.517-0.764-2.191-0.764c-0.653,0-1.206,0.18-1.66,0.539
		s-0.811,1.01-1.07,1.951c-0.261,0.94-0.391,2.91-0.391,5.91V31.169z"/>
</g>
<g>
	<path fill="#0B2A42" d="M2.407,29.169V4.831h7.354l4.416,16.602l4.366-16.602h7.371v24.338H21.35V10.011l-4.831,19.158h-4.731
		L6.973,10.011v19.158H2.407z"/>
	<path fill="#0B2A42" d="M29.684,20.104c0-1.549,0.382-3.049,1.146-4.499c0.764-1.45,1.845-2.557,3.246-3.32
		c1.4-0.764,2.963-1.146,4.69-1.146c2.667,0,4.853,0.866,6.558,2.598c1.704,1.732,2.557,3.921,2.557,6.566
		c0,2.668-0.861,4.879-2.582,6.633c-1.721,1.754-3.888,2.631-6.5,2.631c-1.616,0-3.157-0.365-4.624-1.096
		c-1.467-0.73-2.582-1.801-3.345-3.213C30.065,23.849,29.684,22.13,29.684,20.104z M34.465,20.354c0,1.749,0.415,3.088,1.245,4.018
		s1.854,1.395,3.071,1.395c1.217,0,2.238-0.465,3.063-1.395c0.824-0.93,1.237-2.28,1.237-4.051c0-1.727-0.413-3.055-1.237-3.984
		c-0.825-0.93-1.846-1.395-3.063-1.395c-1.218,0-2.241,0.465-3.071,1.395S34.465,18.604,34.465,20.354z"/>
	<path fill="#0B2A42" d="M51.332,29.169V4.831h4.665v8.766c1.438-1.638,3.143-2.457,5.113-2.457c2.147,0,3.923,0.778,5.329,2.333
		c1.405,1.555,2.108,3.789,2.108,6.699c0,3.011-0.717,5.329-2.15,6.956c-1.434,1.627-3.174,2.44-5.221,2.44
		c-1.007,0-2-0.252-2.98-0.756c-0.979-0.503-1.824-1.247-2.532-2.232v2.59H51.332z M55.964,19.972c0,1.826,0.288,3.177,0.863,4.051
		c0.808,1.24,1.881,1.859,3.221,1.859c1.029,0,1.906-0.439,2.631-1.32c0.725-0.879,1.087-2.266,1.087-4.158
		c0-2.014-0.365-3.467-1.096-4.358c-0.73-0.891-1.666-1.336-2.806-1.336c-1.118,0-2.048,0.435-2.789,1.303
		C56.334,16.882,55.964,18.201,55.964,19.972z"/>
	<path fill="#0B2A42" d="M72.3,9.147V4.831h4.665v4.316H72.3z M72.3,29.169V11.538h4.665v17.631H72.3z"/>
	<path fill="#0B2A42" d="M81.746,29.169V4.831h4.665v24.338H81.746z"/>
	<path fill="#0B2A42" d="M101.402,23.558l4.648,0.78c-0.598,1.704-1.542,3.003-2.831,3.894c-1.29,0.891-2.903,1.336-4.839,1.336
		c-3.066,0-5.335-1.002-6.807-3.005c-1.162-1.604-1.743-3.63-1.743-6.076c0-2.922,0.764-5.21,2.291-6.865
		c1.527-1.654,3.458-2.482,5.794-2.482c2.623,0,4.692,0.866,6.209,2.598c1.516,1.732,2.241,4.386,2.175,7.96H94.612
		c0.033,1.384,0.409,2.46,1.129,3.229c0.719,0.77,1.616,1.154,2.689,1.154c0.73,0,1.345-0.199,1.843-0.598
		S101.147,24.443,101.402,23.558z M101.668,18.843c-0.033-1.35-0.382-2.377-1.046-3.08s-1.472-1.054-2.424-1.054
		c-1.019,0-1.859,0.371-2.523,1.112c-0.664,0.742-0.991,1.749-0.979,3.021H101.668z"/>
	<path fill="#0B2A42" d="M141.113,26.197l-2.822,3.603c-1.384-0.675-2.712-1.604-3.984-2.789c-0.985,0.886-2.031,1.539-3.138,1.959
		c-1.107,0.42-2.424,0.631-3.951,0.631c-3.033,0-5.313-0.852-6.84-2.557c-1.185-1.316-1.776-2.833-1.776-4.549
		c0-1.561,0.465-2.963,1.395-4.209c0.93-1.244,2.318-2.326,4.167-3.245c-0.83-0.985-1.456-1.923-1.876-2.814
		c-0.421-0.891-0.631-1.735-0.631-2.532c0-1.472,0.589-2.72,1.768-3.744c1.179-1.023,2.858-1.536,5.039-1.536
		c2.103,0,3.746,0.537,4.931,1.61c1.184,1.074,1.776,2.385,1.776,3.935c0,0.985-0.293,1.92-0.88,2.806
		c-0.587,0.886-1.771,1.887-3.553,3.005l3.387,4.466c0.398-0.708,0.741-1.633,1.029-2.772l4.217,0.963
		c-0.421,1.494-0.786,2.587-1.096,3.278c-0.31,0.692-0.642,1.271-0.996,1.735c0.52,0.487,1.192,1.021,2.017,1.603
		C140.12,25.624,140.726,26.009,141.113,26.197z M126.587,18.029c-1.074,0.542-1.876,1.195-2.407,1.959s-0.797,1.544-0.797,2.341
		c0,1.008,0.329,1.829,0.988,2.465c0.658,0.637,1.541,0.955,2.648,0.955c0.73,0,1.433-0.144,2.108-0.432
		c0.675-0.287,1.411-0.764,2.208-1.428L126.587,18.029z M128.413,12.966l1.262-0.963c0.93-0.719,1.395-1.433,1.395-2.142
		c0-0.598-0.224-1.106-0.672-1.527c-0.448-0.42-1.054-0.631-1.818-0.631c-0.742,0-1.323,0.186-1.743,0.556
		c-0.421,0.371-0.631,0.8-0.631,1.287c0,0.576,0.354,1.273,1.063,2.092L128.413,12.966z"/>
	<path fill="#0B2A42" d="M164.903,20.221V16.12h10.592v9.695c-1.029,0.996-2.521,1.873-4.474,2.631
		c-1.954,0.758-3.932,1.138-5.935,1.138c-2.546,0-4.765-0.534-6.657-1.603c-1.893-1.067-3.315-2.595-4.267-4.582
		c-0.952-1.986-1.428-4.146-1.428-6.482c0-2.534,0.531-4.787,1.594-6.757c1.063-1.97,2.617-3.48,4.665-4.532
		c1.561-0.808,3.503-1.212,5.827-1.212c3.021,0,5.381,0.634,7.081,1.901c1.699,1.268,2.792,3.019,3.279,5.254l-4.881,0.913
		c-0.343-1.195-0.988-2.139-1.934-2.831c-0.946-0.691-2.128-1.038-3.544-1.038c-2.147,0-3.854,0.681-5.122,2.042
		c-1.268,1.361-1.901,3.381-1.901,6.06c0,2.889,0.642,5.055,1.926,6.5c1.284,1.443,2.966,2.166,5.047,2.166
		c1.029,0,2.061-0.201,3.096-0.605c1.035-0.404,1.923-0.895,2.665-1.47v-3.088H164.903z"/>
	<path fill="#0B2A42" d="M183.48,16.917l-4.233-0.764c0.476-1.704,1.295-2.966,2.457-3.785c1.162-0.819,2.889-1.229,5.18-1.229
		c2.081,0,3.63,0.247,4.648,0.739c1.018,0.493,1.735,1.118,2.15,1.876c0.415,0.758,0.623,2.15,0.623,4.175l-0.05,5.445
		c0,1.55,0.075,2.692,0.224,3.429s0.429,1.524,0.838,2.365h-4.615c-0.122-0.31-0.271-0.77-0.448-1.378
		c-0.078-0.276-0.133-0.459-0.166-0.548c-0.797,0.775-1.649,1.355-2.557,1.743c-0.908,0.388-1.876,0.581-2.905,0.581
		c-1.815,0-3.246-0.492-4.292-1.478s-1.569-2.229-1.569-3.735c0-0.996,0.238-1.885,0.714-2.664c0.476-0.781,1.143-1.379,2-1.793
		c0.857-0.416,2.094-0.777,3.71-1.088c2.18-0.409,3.691-0.791,4.532-1.146v-0.465c0-0.896-0.222-1.536-0.664-1.917
		c-0.443-0.382-1.278-0.573-2.507-0.573c-0.83,0-1.478,0.164-1.942,0.49C184.145,15.525,183.768,16.098,183.48,16.917z
		 M189.723,20.702c-0.598,0.199-1.544,0.438-2.839,0.714s-2.142,0.548-2.54,0.813c-0.609,0.432-0.913,0.979-0.913,1.644
		c0,0.653,0.243,1.218,0.73,1.693c0.487,0.476,1.106,0.714,1.859,0.714c0.841,0,1.644-0.276,2.407-0.83
		c0.564-0.42,0.935-0.936,1.112-1.544c0.122-0.398,0.183-1.156,0.183-2.274V20.702z"/>
	<path fill="#0B2A42" d="M198.555,11.538h4.3v2.407c1.538-1.87,3.37-2.806,5.495-2.806c1.129,0,2.108,0.232,2.939,0.697
		c0.83,0.465,1.51,1.168,2.041,2.108c0.775-0.94,1.611-1.644,2.508-2.108s1.854-0.697,2.871-0.697c1.295,0,2.391,0.263,3.287,0.789
		c0.896,0.526,1.566,1.298,2.01,2.316c0.32,0.753,0.48,1.97,0.48,3.652v11.272h-4.664V19.092c0-1.749-0.161-2.878-0.482-3.387
		c-0.432-0.664-1.096-0.996-1.992-0.996c-0.652,0-1.268,0.199-1.842,0.598c-0.576,0.398-0.991,0.982-1.246,1.751
		c-0.254,0.77-0.381,1.984-0.381,3.645v8.467h-4.666v-9.662c0-1.715-0.083-2.822-0.249-3.32s-0.423-0.869-0.772-1.112
		c-0.349-0.243-0.822-0.365-1.419-0.365c-0.72,0-1.367,0.194-1.942,0.581c-0.576,0.388-0.988,0.946-1.237,1.677
		s-0.374,1.942-0.374,3.636v8.566h-4.665V11.538z"/>
	<path fill="#0B2A42" d="M239.345,23.558l4.648,0.78c-0.598,1.704-1.542,3.003-2.831,3.894c-1.29,0.891-2.903,1.336-4.839,1.336
		c-3.066,0-5.336-1.002-6.807-3.005c-1.162-1.604-1.744-3.63-1.744-6.076c0-2.922,0.764-5.21,2.291-6.865
		c1.527-1.654,3.459-2.482,5.795-2.482c2.623,0,4.691,0.866,6.209,2.598c1.516,1.732,2.24,4.386,2.174,7.96h-11.688
		c0.033,1.384,0.41,2.46,1.129,3.229c0.72,0.77,1.616,1.154,2.689,1.154c0.73,0,1.346-0.199,1.844-0.598
		S239.089,24.443,239.345,23.558z M239.611,18.843c-0.033-1.35-0.383-2.377-1.047-3.08s-1.472-1.054-2.424-1.054
		c-1.018,0-1.859,0.371-2.523,1.112c-0.664,0.742-0.99,1.749-0.979,3.021H239.611z"/>
	<path fill="#21B0BA" d="M257.507,4.831h8.98c2.025,0,3.57,0.155,4.633,0.465c1.428,0.421,2.65,1.168,3.668,2.241
		c1.019,1.074,1.793,2.388,2.324,3.943c0.531,1.555,0.797,3.473,0.797,5.752c0,2.003-0.248,3.729-0.746,5.18
		c-0.609,1.771-1.479,3.204-2.607,4.3c-0.852,0.83-2.003,1.478-3.453,1.942c-1.084,0.343-2.534,0.515-4.35,0.515h-9.246V4.831z
		 M262.421,8.948v16.12h3.668c1.373,0,2.363-0.077,2.973-0.232c0.797-0.199,1.457-0.536,1.983-1.013
		c0.525-0.476,0.954-1.259,1.286-2.35c0.332-1.09,0.498-2.575,0.498-4.457c0-1.881-0.166-3.326-0.498-4.333
		c-0.332-1.007-0.797-1.793-1.395-2.357s-1.355-0.946-2.273-1.146c-0.688-0.155-2.031-0.232-4.035-0.232H262.421z"/>
	<path fill="#21B0BA" d="M292.253,23.558l4.648,0.78c-0.598,1.704-1.541,3.003-2.83,3.894s-2.902,1.336-4.84,1.336
		c-3.065,0-5.334-1.002-6.807-3.005c-1.162-1.604-1.742-3.63-1.742-6.076c0-2.922,0.764-5.21,2.291-6.865
		c1.527-1.654,3.458-2.482,5.793-2.482c2.623,0,4.693,0.866,6.209,2.598c1.517,1.732,2.242,4.386,2.176,7.96h-11.688
		c0.033,1.384,0.408,2.46,1.129,3.229c0.719,0.77,1.615,1.154,2.689,1.154c0.73,0,1.344-0.199,1.842-0.598
		S292,24.443,292.253,23.558z M292.519,18.843c-0.033-1.35-0.381-2.377-1.045-3.08s-1.473-1.054-2.424-1.054
		c-1.02,0-1.859,0.371-2.523,1.112c-0.664,0.742-0.991,1.749-0.98,3.021H292.519z"/>
	<path fill="#21B0BA" d="M305.8,29.169l-7.105-17.631h4.898l3.32,8.998l0.963,3.005c0.254-0.764,0.414-1.267,0.48-1.511
		c0.155-0.498,0.321-0.996,0.498-1.494l3.354-8.998h4.799l-7.006,17.631H305.8z"/>
	<path fill="#21B0BA" d="M330.072,23.558l4.648,0.78c-0.598,1.704-1.541,3.003-2.83,3.894s-2.902,1.336-4.84,1.336
		c-3.065,0-5.334-1.002-6.807-3.005c-1.162-1.604-1.742-3.63-1.742-6.076c0-2.922,0.764-5.21,2.291-6.865
		c1.527-1.654,3.458-2.482,5.793-2.482c2.623,0,4.693,0.866,6.209,2.598c1.517,1.732,2.242,4.386,2.176,7.96h-11.688
		c0.033,1.384,0.408,2.46,1.129,3.229c0.719,0.77,1.615,1.154,2.689,1.154c0.73,0,1.344-0.199,1.842-0.598
		S329.818,24.443,330.072,23.558z M330.337,18.843c-0.033-1.35-0.381-2.377-1.045-3.08s-1.473-1.054-2.424-1.054
		c-1.02,0-1.859,0.371-2.523,1.112c-0.664,0.742-0.991,1.749-0.98,3.021H330.337z"/>
	<path fill="#21B0BA" d="M338.771,29.169V4.831h4.666v24.338H338.771z"/>
	<path fill="#21B0BA" d="M347.138,20.104c0-1.549,0.383-3.049,1.146-4.499c0.764-1.45,1.845-2.557,3.245-3.32
		c1.399-0.764,2.964-1.146,4.69-1.146c2.666,0,4.853,0.866,6.557,2.598c1.705,1.732,2.557,3.921,2.557,6.566
		c0,2.668-0.86,4.879-2.581,6.633c-1.722,1.754-3.888,2.631-6.499,2.631c-1.617,0-3.158-0.365-4.624-1.096
		c-1.467-0.73-2.581-1.801-3.345-3.213C347.521,23.849,347.138,22.13,347.138,20.104z M351.919,20.354
		c0,1.749,0.416,3.088,1.246,4.018s1.854,1.395,3.07,1.395c1.218,0,2.238-0.465,3.063-1.395c0.824-0.93,1.237-2.28,1.237-4.051
		c0-1.727-0.413-3.055-1.237-3.984c-0.825-0.93-1.846-1.395-3.063-1.395c-1.217,0-2.24,0.465-3.07,1.395
		S351.919,18.604,351.919,20.354z"/>
	<path fill="#21B0BA" d="M368.853,11.538h4.35v2.59c0.564-0.885,1.328-1.604,2.291-2.158c0.963-0.553,2.031-0.83,3.205-0.83
		c2.047,0,3.785,0.803,5.213,2.407c1.428,1.605,2.141,3.841,2.141,6.707c0,2.944-0.719,5.232-2.158,6.864
		c-1.438,1.633-3.182,2.449-5.229,2.449c-0.975,0-1.857-0.193-2.648-0.581s-1.625-1.052-2.498-1.992v8.882h-4.666V11.538z
		 M373.468,20.055c0,1.981,0.393,3.444,1.18,4.392c0.785,0.945,1.742,1.419,2.871,1.419c1.086,0,1.986-0.435,2.707-1.304
		c0.719-0.868,1.078-2.293,1.078-4.274c0-1.849-0.371-3.221-1.111-4.117c-0.742-0.896-1.66-1.345-2.756-1.345
		c-1.141,0-2.086,0.44-2.84,1.32C373.845,17.024,373.468,18.328,373.468,20.055z"/>
	<path fill="#21B0BA" d="M399.964,23.558l4.648,0.78c-0.598,1.704-1.541,3.003-2.83,3.894c-1.29,0.891-2.903,1.336-4.84,1.336
		c-3.065,0-5.335-1.002-6.807-3.005c-1.162-1.604-1.743-3.63-1.743-6.076c0-2.922,0.764-5.21,2.291-6.865
		c1.527-1.654,3.459-2.482,5.794-2.482c2.623,0,4.692,0.866,6.209,2.598c1.517,1.732,2.241,4.386,2.175,7.96h-11.688
		c0.033,1.384,0.409,2.46,1.129,3.229c0.72,0.77,1.616,1.154,2.689,1.154c0.73,0,1.345-0.199,1.843-0.598
		S399.709,24.443,399.964,23.558z M400.23,18.843c-0.033-1.35-0.382-2.377-1.046-3.08s-1.472-1.054-2.424-1.054
		c-1.019,0-1.859,0.371-2.523,1.112c-0.664,0.742-0.99,1.749-0.979,3.021H400.23z"/>
	<path fill="#21B0BA" d="M413.13,29.169h-4.665V11.538h4.333v2.507c0.741-1.184,1.408-1.964,2-2.341
		c0.593-0.376,1.265-0.564,2.018-0.564c1.063,0,2.086,0.293,3.071,0.88l-1.444,4.067c-0.786-0.509-1.517-0.764-2.191-0.764
		c-0.653,0-1.206,0.18-1.66,0.54c-0.454,0.36-0.811,1.01-1.07,1.951c-0.261,0.941-0.391,2.911-0.391,5.91V29.169z"/>
</g>
</svg>
