<?xml version="1.0" encoding="utf-8"?>
<!-- Generator: Adobe Illustrator 16.0.0, SVG Export Plug-In . SVG Version: 6.00 Build 0)  -->
<!DOCTYPE svg PUBLIC "-//W3C//DTD SVG 1.1//EN" "http://www.w3.org/Graphics/SVG/1.1/DTD/svg11.dtd">
<svg version="1.1" id="Layer_1" xmlns="http://www.w3.org/2000/svg" xmlns:xlink="http://www.w3.org/1999/xlink" x="0px" y="0px"
	 width="270px" height="43px" viewBox="0 0 270 43" enable-background="new 0 0 270 43" xml:space="preserve">
<g>
	<path fill-rule="evenodd" clip-rule="evenodd" fill="#132C43" d="M3.81,9.673c0.18-2.182,0.18-2.182,2.404-2.182
		c0.041,0,0.081-0.002,0.122,0c1.324,0.08,2.968-0.534,3.888,0.235c0.894,0.748,1.094,2.35,1.544,3.597
		c1.585,4.397,3.146,8.803,4.772,13.364c0.675-1.027,0.885-2.089,1.245-3.074c1.604-4.396,3.179-8.803,4.724-13.22
		c0.237-0.676,0.533-0.953,1.278-0.921c1.497,0.064,3,0.07,4.497,0c0.872-0.042,1.149,0.258,1.07,1.094
		c-0.049,0.518,0.035,1.048,0.059,1.572c0.002,0.244,0.005,0.488,0.007,0.732c0,0.243,0.001,0.486,0.002,0.729
		c-0.025,0.442-0.071,0.883-0.073,1.325c-0.022,6.23-0.039,12.461-0.057,18.692c-1.625-0.012-3.25-0.024-4.876-0.036
		c-0.02-0.807-0.039-1.612-0.059-2.419c0.022-2.194,0.044-4.389,0.066-6.583c0.201-0.473,0.223-0.96,0.125-1.459
		c0.025-0.65,0.051-1.3,0.076-1.951c0.127-1.545,0.297-3.089,0.032-4.7c-0.564,1.648-1.128,3.295-1.692,4.943
		c-0.095,0.222-0.199,0.441-0.285,0.667c-1.454,3.854-2.905,7.71-4.357,11.564c-1.064,0.018-2.128,0.036-3.192,0.054
		c-0.548-0.144-0.537-0.671-0.684-1.061c-1.414-3.736-2.808-7.48-4.208-11.223c-0.481-1.631-0.66-3.364-1.729-4.817
		c0.108,1.605,0.216,3.21,0.324,4.815c-0.018,0.658-0.089,1.318,0.089,1.967c0.041,3.089,0.089,6.179,0.115,9.268
		c0.003,0.392,0.227,0.931-0.447,1.061c-1.397-0.109-2.795-0.105-4.193-0.004c-0.592-0.066-0.514-0.511-0.514-0.911
		c0-1.458,0.004-2.917-0.001-4.375c-0.02-4.94-0.043-9.88-0.065-14.82c-0.004-0.325-0.008-0.65-0.013-0.975
		C3.808,10.306,3.809,9.99,3.81,9.673z"/>
	<path fill-rule="evenodd" clip-rule="evenodd" fill="#31AEBA" d="M116.902,9.896c0.198-2.397,0.198-2.404,2.616-2.395
		c1.947,0.007,3.912-0.129,5.839,0.081c4.689,0.511,8.099,2.822,9.693,7.433c0.166,0.893,0.332,1.787,0.498,2.68
		c-0.033,1.686-0.066,3.372-0.099,5.057c-0.084,0.225-0.194,0.442-0.25,0.673c-1.358,5.564-6.46,8.436-11.153,8.198
		c-2.342-0.118-4.695-0.022-7.042-0.023c-0.013-2.183-0.029-4.364-0.038-6.547c-0.02-4.809-0.036-9.618-0.053-14.427
		C116.91,10.382,116.906,10.139,116.902,9.896z M121.88,15.28c-0.009,3.76-0.003,7.52-0.041,11.279
		c-0.008,0.774,0.275,1.036,1.004,0.885c0.769,0.006,1.552,0.106,2.305-0.002c2.109-0.303,3.897-1.099,4.521-3.405
		c0.883-1.866,0.726-3.851,0.667-5.824c0.023-1.404-0.318-2.742-0.955-3.966c-1.16-2.228-4.643-3.581-7.075-2.863
		c-0.506,0.149-0.449,0.504-0.45,0.856C121.854,13.253,121.871,14.267,121.88,15.28z"/>
	<path fill-rule="evenodd" clip-rule="evenodd" fill="#132C43" d="M52.543,9.153c0.022-0.647,0.117-1.302,0.049-1.94
		c-0.095-0.898,0.276-1.102,1.095-1.041c0.928,0.069,1.869,0.073,2.796-0.001c0.832-0.066,1.137,0.164,1.083,1.044
		c-0.074,1.212,0,2.433,0.004,3.649c0.004,1.216,0.001,2.433,0.001,3.787c1.191-0.702,2.32-1.32,3.686-1.391
		c3.053-0.156,5.441,1.25,6.679,4.067c0.227,0.518,0.399,1.059,0.597,1.589c0.157,1.137,0.313,2.274,0.47,3.412
		c-0.083,1.138-0.165,2.275-0.247,3.413c-0.535,1.085-0.731,2.301-1.402,3.344c-2.24,3.483-7.533,4.036-10.157,0.817
		c0.269,1.854-0.798,1.842-1.986,1.75c-0.848-0.066-1.704-0.028-2.556-0.036c-0.02-4.332-0.039-8.664-0.061-12.997
		C52.58,15.465,52.561,12.309,52.543,9.153z M57.588,22.1c-0.015,1.248-0.008,2.497-0.053,3.743c-0.023,0.627,0.16,1.096,0.72,1.396
		c1.928,1.273,3.675,1.012,4.911-0.737c0.915-1.186,0.676-2.574,0.688-3.919c0.129-0.813-0.014-1.603-0.18-2.398
		c-0.533-2.552-2.158-3.173-4.593-2.593c-1.116,0.266-1.63,0.919-1.539,2.086C57.604,20.482,57.576,21.292,57.588,22.1z"/>
	<path fill-rule="evenodd" clip-rule="evenodd" fill="#31AEBA" d="M220.301,15.994c0.14-2.436,0.14-2.436,2.67-2.436
		c1.712,0,1.712,0,2.292,1.431c1.061-0.854,2.194-1.544,3.579-1.673c3.14-0.292,5.47,1.078,6.777,4.002
		c0.23,0.517,0.396,1.063,0.592,1.594c0.148,1.056,0.296,2.111,0.443,3.166c-0.104,1.438-0.207,2.877-0.311,4.314
		c-0.556,0.524-0.617,1.296-0.955,1.932c-1.566,2.947-4.105,4.176-7.32,3.507c-1.025-0.213-1.804-0.938-2.764-1.392
		c0,1.846,0,3.575,0,5.305c-0.038,0.973-0.076,1.945-0.114,2.918c-0.324,0.009-0.649,0.018-0.974,0.026c-0.813,0-1.628,0-2.441,0
		c-0.328,0.001-0.655,0.002-0.983,0.002c-0.717-0.193-0.437-0.786-0.438-1.211c-0.018-6.229-0.007-12.458-0.02-18.687
		c-0.001-0.463,0.188-0.977-0.216-1.385c-0.007-0.058-0.012-0.115-0.015-0.173l-0.017,0.005c0.07-0.09,0.142-0.181,0.212-0.271
		C220.3,16.645,220.301,16.319,220.301,15.994z M225.306,22.106c-0.023,1.05,0.001,2.104-0.084,3.148
		c-0.083,1.019,0.325,1.703,1.183,2.177c2.141,1.153,3.792,0.674,4.933-1.431c0.553-1.076,0.537-2.244,0.557-3.406
		c0.087-1.257-0.142-2.459-0.691-3.588c-0.424-0.873-1.059-1.501-2.095-1.58c-1.371-0.45-2.491-0.05-3.413,1.014
		C224.797,19.581,225.314,20.872,225.306,22.106z"/>
	<path fill-rule="evenodd" clip-rule="evenodd" fill="#132C43" d="M89.424,19.647c0.476-3.756,4.209-6.564,8.433-6.396
		c3.943,0.158,6.323,2.237,7.459,5.912c0.01,0.405,0.02,0.81,0.03,1.214c0.002,0.892,0.004,1.784,0.007,2.676
		c-0.222,0.508,0.372,1.45-0.78,1.463c-1.378-0.006-2.757-0.012-4.135-0.018c-1.873-0.109-3.746-0.104-5.619-0.004
		c-0.552-0.133-0.87-0.012-0.694,0.643c0.312,1.153,1.119,1.848,2.155,2.331c1.554,0.81,3.096,0.671,4.632-0.055
		c0.212-0.101,0.481-0.148,0.628-0.309c0.875-0.952,1.67-0.852,2.433,0.125c0.317,0.441,0.614,0.9,1.076,1.213
		c0.037,0.076,0.073,0.152,0.11,0.228c-0.108,0.53-0.653,0.745-0.864,1.201c-0.18,0.159-0.36,0.318-0.54,0.478
		c-0.408,0.149-0.767,0.369-1.042,0.712c-0.119,0.013-0.248-0.001-0.355,0.042c-4.482,1.772-8.479,1.23-11.814-2.472
		c-0.686-1.031-1.049-2.186-1.287-3.388c-0.025-1.216-0.049-2.432-0.075-3.648C89.262,20.946,89.343,20.297,89.424,19.647z
		 M99.462,20.893c1.31,0.071,1.427-0.067,1.096-1.295c-0.384-1.428-1.215-2.124-2.759-2.312c-1.276-0.155-2.552,0.541-3.171,1.774
		c-0.268,0.534-0.731,1.194-0.427,1.685c0.281,0.454,1.039,0.197,1.594,0.147C97.017,20.994,98.239,20.994,99.462,20.893z"/>
	<path fill-rule="evenodd" clip-rule="evenodd" fill="#31AEBA" d="M138.166,19.891c0.972-3.359,2.903-5.816,6.508-6.448
		c2.922-0.512,5.644-0.053,7.792,2.285c0.688,0.748,0.692,1.797,1.292,2.564c0.445,1.971,0.63,3.965,0.525,5.985
		c-0.248,0.03-0.497,0.061-0.746,0.091c-0.169-0.003-0.337-0.007-0.506-0.011c-2.706-0.019-5.411-0.049-8.117-0.048
		c-0.55,0-1.135-0.168-1.649,0.19c-0.065-0.015-0.128-0.008-0.189,0.02c-0.191,0.081-0.158,0.176-0.018,0.277
		c-0.083,1.271,0.856,1.813,1.717,2.412c1.799,1.148,3.601,1.078,5.404,0.01c0.879-0.404,1.753-1.497,2.647-0.021
		c0.198,0.356,0.27,0.8,0.694,0.999c0.115,0.161,0.229,0.322,0.345,0.484c-0.134,0.569-0.781,0.828-0.866,1.428
		c-0.072-0.001-0.137,0.021-0.194,0.063c-0.318,0.231-0.638,0.463-0.957,0.694c-2.838,1.384-5.734,1.554-8.71,0.471
		c-1.5-0.546-2.539-1.702-3.709-2.69c-0.107-0.55-0.375-1.019-0.741-1.436c-0.219-0.576-0.437-1.153-0.655-1.729
		c-0.059-1.055-0.116-2.109-0.175-3.163C137.961,21.508,138.063,20.7,138.166,19.891z M149.604,20.869
		c0.098-1.75-0.549-2.894-1.913-3.389c-2.342-0.849-4.467,0.718-4.599,3.392c1.123,0.458,2.297,0.197,3.442,0.198
		C147.555,21.071,148.609,21.343,149.604,20.869z"/>
	<path fill-rule="evenodd" clip-rule="evenodd" fill="#31AEBA" d="M239.061,20.136c0.798-2.865,2.237-5.22,5.178-6.311
		c3.624-1.344,9.083-0.59,10.719,5.334c0.099,0.645,0.196,1.29,0.294,1.936c-0.008,1.068-0.016,2.137-0.023,3.205
		c-0.189,0.022-0.379,0.045-0.568,0.068c-0.25-0.004-0.5-0.008-0.75-0.011c-3.134-0.019-6.269-0.037-9.402-0.055
		c-0.207-0.001-0.399,0.035-0.526,0.224c-0.109,1.321,0.728,2.041,1.701,2.673c1.532,1.07,3.637,1.071,5.326,0.003
		c0.887-0.61,1.773-1.194,2.643,0.025c0.122,0.428,0.391,0.732,0.777,0.941c0.146,0.17,0.291,0.341,0.436,0.512
		c-0.312,0.399-0.623,0.799-0.936,1.197c-0.173,0.151-0.346,0.302-0.52,0.453c-0.396,0.255-0.793,0.511-1.19,0.766
		c-1.652,0.539-3.306,1.11-5.082,0.928c-2.964-0.306-5.416-1.523-7.087-4.084c-0.334-0.583-0.413-1.297-0.921-1.791
		c-0.102-1.031-0.204-2.063-0.306-3.095C238.901,22.082,238.98,21.109,239.061,20.136z M250.288,19.921
		c-0.406-2.435-2.735-3.463-4.729-2.055c-1.018,0.718-1.49,1.768-1.555,3.004c2.095,0.37,4.188,0.37,6.283,0
		c0.029-0.064,0.039-0.13,0.027-0.2C250.544,20.412,250.572,20.161,250.288,19.921z"/>
	<path fill-rule="evenodd" clip-rule="evenodd" fill="#132C43" d="M32.659,20.623c0.216-0.735,0.372-1.494,0.658-2.201
		c1.507-3.721,4.754-5.526,9.089-5.091c3.706,0.372,6.396,3.099,7.182,7.281c0.173,1.427,0.2,2.857,0.054,4.289
		c-0.25,1.137-0.712,2.195-1.186,3.25c-1.109,1.535-2.398,2.868-4.281,3.407c-4.104,1.177-7.59,0.31-10.23-3.212
		c-0.346-0.707-0.692-1.415-1.039-2.123c-0.149-1.134-0.299-2.269-0.448-3.402C32.404,22.076,32.467,21.344,32.659,20.623z
		 M38.733,26.816c1.561,1.658,3.239,1.583,4.98-0.227c1.011-0.801,0.643-2.018,0.916-3.04c0.218-1.458,0.097-2.881-0.523-4.228
		c-0.59-1.28-1.62-2.064-3.026-2.034c-1.458,0.031-2.489,0.865-3.002,2.245c-0.515,1.382-0.664,2.815-0.462,4.28
		C37.764,24.896,37.72,26.053,38.733,26.816z"/>
	<path fill-rule="evenodd" clip-rule="evenodd" fill="#31AEBA" d="M173.939,18.179c0.77-2.398,3.818-4.649,6.582-4.858
		c4.732-0.358,7.197,1.425,8.788,6.354c0.053,0.556,0.105,1.112,0.158,1.668c-0.011,0.986-0.021,1.972-0.03,2.958
		c-0.189,0.022-0.379,0.045-0.568,0.068c-0.25-0.004-0.501-0.008-0.751-0.011c-3.134-0.019-6.269-0.037-9.402-0.055
		c-0.206-0.001-0.399,0.035-0.526,0.224c-0.109,1.321,0.728,2.041,1.701,2.673c1.54,1.081,4.064,1.082,5.324,0.002
		c0.888-0.603,1.775-1.2,2.644,0.026c0.122,0.429,0.394,0.731,0.782,0.938c0.146,0.172,0.291,0.345,0.437,0.517
		c-0.313,0.398-0.626,0.798-0.938,1.196c-0.266,0.232-0.531,0.465-0.797,0.697c-0.349,0.096-0.673,0.236-0.915,0.521
		c-0.767,0.246-1.517,0.592-2.303,0.724c-4.05,0.678-7.433-0.411-9.866-3.88c-0.334-0.583-0.413-1.296-0.919-1.79
		c-0.106-0.63-0.213-1.26-0.318-1.889C173.012,22.187,173.134,20.13,173.939,18.179z M184.764,20.35
		c-0.085-1.564-0.781-2.551-2.051-2.907c-2.391-0.67-4.208,0.714-4.5,3.427c2.107,0.381,4.216,0.339,6.326,0.025
		c0.077-0.075,0.154-0.15,0.23-0.225C184.909,20.561,184.912,20.454,184.764,20.35z"/>
	<path fill-rule="evenodd" clip-rule="evenodd" fill="#31AEBA" d="M200.796,19.891c0.412-2.677,1.813-4.629,4.269-5.8
		c3.917-1.868,8.718-0.648,11.098,2.756c0.557,0.797,0.667,1.705,0.964,2.569c0.104,0.644,0.208,1.289,0.313,1.933
		c-0.004,0.248-0.006,0.495-0.01,0.742c-0.025,0.083-0.018,0.162,0.024,0.237c0.008,0.239,0.017,0.479,0.024,0.72
		c-0.098,0.898-0.194,1.798-0.292,2.696c-0.243,1.004-0.591,1.969-1.061,2.89c-1.767,2.139-4.013,3.346-6.808,3.417
		c-3.271,0.083-5.863-1.223-7.743-3.915c-0.307-0.992-0.613-1.983-0.921-2.975c-0.041-0.868-0.082-1.737-0.123-2.606
		C200.619,21.667,200.707,20.778,200.796,19.891z M205.475,24.749c0.009,0.092,0.018,0.184,0.026,0.275
		c0.078,0.981,0.612,1.675,1.396,2.211c1.596,1.194,3.338,1.022,4.68-0.461c1.034-0.739,0.835-1.917,1.047-2.948
		c0.348-1.771,0.146-3.462-0.786-5.027c-1.145-1.921-4.256-2.145-5.487-0.293c-1.16,1.744-1.412,3.737-0.911,5.795
		C205.451,24.45,205.463,24.6,205.475,24.749z"/>
	<path fill-rule="evenodd" clip-rule="evenodd" fill="#F6F7F7" d="M105.345,20.377c-0.01-0.405-0.02-0.81-0.03-1.214
		c0.369,0.01,0.574,0.224,0.744,0.533c1.437,2.623,1.624,5.467,0.894,8.236c-0.356,1.35-1.021,2.423-0.252,3.879
		c0.43,0.815-0.021,1.863-0.689,2.577c-1.723,1.842-3.835,2.986-6.39,3.028c-1.847,0.031-3.711,0.238-5.526-0.476
		c-1.964-0.771-3.714-1.777-4.953-3.537c-0.16-0.229-0.329-0.536-0.643-0.476c-0.374,0.071-0.422,0.454-0.476,0.768
		c-0.041,0.237-0.003,0.486-0.027,0.729c-0.16,1.607-1.002,2.581-2.58,2.73c-1.206,0.114-2.442,0.115-3.645-0.015
		c-0.871-0.093-1.713-0.43-2.182-1.349c-0.321-0.628-0.844-0.641-1.204-0.015c-0.686,1.195-1.8,1.398-3.017,1.416
		c-0.568,0.009-1.136,0.003-1.705,0.001c-2.292-0.008-3.027-0.617-3.45-2.876c-0.067-0.359-0.079-0.79-0.481-0.896
		c-0.357-0.095-0.584,0.274-0.749,0.524c-2.079,3.16-5.239,3.965-8.624,3.398c-2.129-0.356-4.17-0.076-6.248-0.138
		c-2.193-0.065-3.012-0.695-3.384-2.826c-0.064-0.366-0.078-0.803-0.428-0.943c-0.417-0.167-0.62,0.299-0.858,0.541
		c-3.072,3.113-6.759,4.175-10.991,3.188c-2.323-0.54-4.172-1.914-5.681-3.741c-0.229-0.277-0.358-0.717-0.817-0.532
		c-0.371,0.15-0.467,0.549-0.472,0.921c-0.031,2.397-0.998,3.461-3.809,3.383c-0.568-0.016-1.136-0.001-1.705-0.002
		c-2.219-0.006-3.244-1.036-3.269-3.286c-0.015-1.313-0.015-1.313-0.487-2.268c-0.701,0.709-0.917,1.633-1.188,2.475
		c-1.088,3.388-3.873,3.563-6.584,2.702c-1.177-0.374-1.487-1.539-1.931-2.526c-0.361-0.803-0.526-1.7-1.23-2.388
		c-0.567,0.549-0.514,1.234-0.52,1.904c-0.023,2.402-1.013,3.385-3.411,3.387c-0.812,0-1.625,0.029-2.435-0.008
		c-1.8-0.082-2.902-1.11-2.911-2.907c-0.035-7.387-0.027-14.773-0.004-22.159c0.005-1.49,0.556-2.146,1.811-2.448
		c-0.001,0.316-0.001,0.632-0.002,0.949c-1.236,0.41-1.065,1.505-1.07,2.413C2.703,19.448,2.719,25.86,2.719,32.273
		c0,3.697,0.5,4.196,4.193,4.19c2.244-0.004,3.098-0.837,3.115-3.059c0.01-1.299,0.003-2.598,0.006-3.896
		c0-0.343,0.074-0.662,0.448-0.776c0.389-0.119,0.607,0.118,0.765,0.432c0.325,0.646,0.646,1.293,0.968,1.939
		c-0.225,0.562-0.126,0.994,0.486,1.223c0.082,0.242,0.163,0.484,0.245,0.727c-0.364,0.384-0.059,0.438,0.243,0.492
		c0.246,0.567,0.491,1.136,0.737,1.703c-0.051,0.538,0.193,0.781,0.731,0.73c0.405,0.085,0.81,0.17,1.215,0.255
		c0.803,0.798,2.609,0.515,3.175-0.499c0.244-0.324,0.489-0.649,0.733-0.974c0.605-0.309,0.924-0.759,0.729-1.465
		c0.083-0.405,0.165-0.81,0.248-1.215c0.618-0.226,0.716-0.658,0.487-1.222c0.083-0.242,0.166-0.484,0.249-0.727
		c0.151-0.05,0.327-0.066,0.447-0.156c0.3-0.226,0.462-0.756,0.972-0.496c0.465,0.236,0.26,0.718,0.269,1.093
		c0.025,1.13-0.066,2.267,0.032,3.389c0.091,1.043,0.295,2.124,1.68,2.262c0.067,0.516,0.456,0.483,0.826,0.483
		c0.771,0,1.542,0.009,2.312-0.002c1.824-0.024,2.932-1.138,2.955-2.969c0.011-0.852,0.002-1.703,0.007-2.556
		c0.001-0.296,0.059-0.585,0.376-0.694c0.287-0.098,0.446,0.121,0.577,0.329c0.121,0.191,0.293,0.267,0.504,0.288
		c0.314,0.249,0.448,0.588,0.486,0.975c-0.368,0.389-0.063,0.439,0.246,0.487c0.162,0.163,0.323,0.326,0.485,0.49
		c0.048,0.926,0.535,1.413,1.461,1.461c0.082,0.081,0.163,0.163,0.245,0.244c0.287,0.819,0.828,1.192,1.707,0.975
		c0.201,0.005,0.382,0.047,0.486,0.244c0.225,0.619,0.655,0.722,1.22,0.484c0.323,0.004,0.647,0.008,0.97,0.012
		c0.681,0.692,2.495,0.692,3.176,0c0.243-0.003,0.485-0.007,0.728-0.01c0.133,0.071,0.305,0.236,0.394,0.199
		c1.448-0.6,3.012-1.019,3.99-2.4c0.386-0.215,0.705-0.482,0.734-0.969c0.947-0.027,0.741-1.207,1.461-1.462
		c0.325,0,0.65,0,0.975,0.001c0,0.162,0,0.324,0,0.486c-0.25,0.163-0.249,0.325,0,0.487c-0.311,2.918,1.031,4.169,3.892,3.912
		c1.239-0.11,2.518-0.585,3.723-0.16c1.318,0.466,2.64,0.439,3.96,0.36c0.904-0.055,1.944,0.007,2.557-0.944
		c0.079-0.004,0.157-0.006,0.236-0.006c0.646-0.088,1.157-0.382,1.467-0.975c1.116-0.788,1.356-2.182,2.188-3.166
		c0.492-0.069,0.952-0.329,1.469-0.239c0,0.864-0.01,1.729,0.005,2.592c0.01,0.555-0.004,1.143,0.726,1.307
		c0.082,0.161,0.165,0.323,0.247,0.484c0.593,0.776,1.315,0.974,2.19,0.49c0.325,0,0.649,0,0.975,0
		c0.489,0.337,0.945,0.511,1.221-0.239c1.385,0.064,1.685-0.822,1.709-1.95c0.512-0.104,0.637-0.335,0.238-0.734
		c0-4.874,0-9.747,0-14.621c0.314-0.246,0.314-0.49-0.005-0.731c0-0.242-0.001-0.483-0.001-0.726
		c-0.384-0.94-0.844-1.867-0.481-2.93h0c0.819-0.069,0.731-0.672,0.724-1.228c-0.001-0.32-0.003-0.641-0.004-0.961
		c0.142-1.08-0.132-1.954-1.198-2.44c0.011-0.244,0.023-0.488,0.035-0.732c0.548,0.037,0.804,0.491,1.133,0.821
		c0.583,0.583,1.004,0.45,1.205-0.284c0.22-0.804,0.597-1.385,1.477-1.512c0,0.244-0.001,0.487-0.001,0.73
		c-0.963,0.271-1.097,1.024-1.189,1.881c-0.169,1.567-0.017,3.125-0.005,4.688c0.048,6.129,0.016,12.258,0.021,18.388
		c0.002,1.759,1.041,2.805,2.774,2.822c0.73,0.007,1.462-0.026,2.192,0.008c1.089,0.05,1.806-0.484,2.412-1.332
		c0.774-1.082,0.328-2.281,0.391-3.422c0.042-0.748,0.155-1.28,1.006-1.35l0,0c0.405,2.396,2.039,3.82,3.954,5.037
		c2.332,1.482,4.948,1.536,7.513,1.233c1.67-0.198,3.421-0.67,4.607-2.129c0.08-0.08,0.16-0.16,0.24-0.239
		c1.556-1.225,1.692-2.372,0.494-4.141c-0.331-1.022,0.916-1.348,0.971-2.198c0.453-1.788,0.325-3.611,0.139-5.398
		C106.328,21.95,106.36,20.875,105.345,20.377z"/>
	<path fill-rule="evenodd" clip-rule="evenodd" fill="#31AEBA" d="M166.164,16.479c0.312-0.944,0.355-2.318,1.004-2.722
		c0.789-0.493,2.088-0.186,3.166-0.195c1.571-0.014,1.567-0.004,1.09,1.477c-0.072,0.226-0.087,0.47-0.128,0.706
		c-0.091,0.241-0.181,0.483-0.271,0.724c-0.181,0.125-0.166,0.313-0.155,0.498c-0.208,0.286-0.272,0.616-0.292,0.958
		c-0.849,1.612-1.137,3.4-1.657,5.119c-0.873,2.884-1.947,5.706-2.937,8.554c-1.548,0.004-3.096,0.009-4.644,0.013
		c-1.306-3.733-2.607-7.468-3.919-11.2c-0.292-0.833-0.616-1.654-0.926-2.48c-0.032-0.259,0.002-0.54-0.248-0.724
		c0.01-0.446-0.162-0.838-0.357-1.223c-0.677-2.425-0.676-2.448,1.802-2.414c0.866,0.012,1.959-0.393,2.543,0.213
		c0.549,0.57,0.603,1.618,0.874,2.455c0.041,0.765,0.334,1.466,0.553,2.185c-0.033,0.199,0.017,0.368,0.18,0.496
		c0.03,0.159,0.06,0.318,0.089,0.478c0.029,0.442,0.105,0.87,0.389,1.231c0.027,0.159,0.056,0.316,0.084,0.475
		c0.383,1.471,0.765,2.941,1.207,4.646c0.347-1.048,0.652-1.829,0.691-2.681C165.06,20.91,165.604,18.692,166.164,16.479z"/>
	<path fill-rule="evenodd" clip-rule="evenodd" fill="#132C43" d="M80.894,8.927c0-0.244,0.001-0.487,0.001-0.73
		c0.106-2.009,0.106-2.009,2.18-2.009c0.162,0,0.324,0,0.486,0c2.293,0,2.293,0,2.483,2.255c0,0.325,0.001,0.65,0.001,0.975
		c-0.017,0.403-0.05,0.805-0.05,1.208c-0.004,6.966-0.004,13.932-0.004,20.898c-1.619,0.056-3.237,0.111-4.856,0.168
		c-0.381-0.371-0.197-0.844-0.198-1.266c-0.024-6.923-0.031-13.847-0.042-20.77C80.895,9.413,80.894,9.17,80.894,8.927z"/>
	<path fill-rule="evenodd" clip-rule="evenodd" fill="#31AEBA" d="M192.326,8.68c0.195-2.463,0.195-2.463,2.714-2.463
		c2.239,0,2.239,0,2.39,2.466c-0.002,0.244-0.004,0.487-0.005,0.731c-0.004,0.326-0.008,0.651-0.012,0.977
		c-0.011,6.613-0.017,13.227-0.038,19.84c-0.002,0.468,0.169,0.979-0.213,1.396c-0.243,0.008-0.485,0.015-0.728,0.022
		c-0.974,0-1.947,0-2.921,0c-0.243-0.001-0.487-0.002-0.73-0.003c-0.459-0.38-0.268-0.904-0.269-1.364
		c-0.013-5.991-0.006-11.983-0.013-17.974c-0.001-0.481-0.065-0.963-0.1-1.444c0.084-0.333,0.125-0.665-0.05-0.985
		C192.483,9.475,192.557,9.074,192.326,8.68z"/>
	<path fill-rule="evenodd" clip-rule="evenodd" fill="#31AEBA" d="M257.874,15.989c0.128-2.431,0.128-2.431,2.545-2.431
		c0.081,0,0.162,0,0.242,0c1.892,0,1.892,0,2.187,1.806c0.969-0.917,1.769-2.02,3.268-2.075c1.853-0.068,1.906-0.058,2,1.73
		c0,0.243,0,0.487,0,0.73c0.001,0.242,0.001,0.484,0.001,0.726c-0.002,0.328-0.005,0.656-0.008,0.983
		c-0.051,0.333-0.029,0.715-0.514,0.752c-3.077-0.42-5.163,0.226-4.646,4.254c0.006,0.04,0.007,0.08,0.01,0.12
		c-0.01,2.655-0.013,5.311-0.035,7.966c-0.003,0.407,0.186,0.928-0.445,1.095c-1.304,0-2.607,0-3.912,0
		c-0.787-0.183-0.49-0.823-0.501-1.285c-0.09-3.818,0.126-7.641-0.117-11.458c0.095-0.576,0.168-1.151-0.048-1.719
		C258.027,16.782,258.097,16.382,257.874,15.989z"/>
	<path fill-rule="evenodd" clip-rule="evenodd" fill="#F0F0F1" d="M197.425,9.413c0.001-0.244,0.003-0.487,0.005-0.731
		c1.104,0.345,1.451,1.168,1.447,2.24c-0.01,2.635,0.022,5.27-0.02,7.903c-0.012,0.745,0.24,1.431,0.282,2.156
		c0.015,0.255,0.14,0.492,0.421,0.516c0.367,0.032,0.494-0.25,0.512-0.547c0.029-0.51,0.052-0.999,0.724-1.059
		c-0.089,0.888-0.177,1.776-0.265,2.664c-0.63,0.184-0.428,0.713-0.431,1.119c-0.017,2.23-0.005,4.462-0.003,6.693
		c-0.981-0.114-1.3,0.364-1.235,1.29c0.053,0.768,0.037,1.543,0.003,2.313c-0.042,0.936-0.377,1.769-1.224,2.241
		c-1.513,0.844-3.158,0.655-4.722,0.276c-1.352-0.327-1.838-1.471-1.865-2.808c-0.006-0.262-0.153-0.465-0.403-0.557
		c-0.356-0.131-0.485,0.149-0.669,0.37c-0.358,0.43-0.612,0.918-1.089,1.283c-2.347,1.797-5.027,2.457-7.884,2.143
		c-3.982-0.439-6.95-2.433-8.548-6.229c-0.628-1.491-0.631-3.064-0.641-4.64c-0.002-0.315,0.05-0.682-0.405-0.759
		c-0.414-0.069-0.633,0.211-0.701,0.529c-0.245,1.15-0.899,2.142-1.171,3.303c-0.241,1.03-0.412,2.209-1.369,2.957
		c-0.006-0.166-0.012-0.332-0.019-0.498c0.012-0.398,0.022-0.796,0.033-1.194c0.561-0.099,0.61-0.579,0.746-0.996
		c0.249-0.767,0.474-1.543,0.753-2.299c1.039-2.805,1.961-5.648,2.772-8.525c0.353-1.246-0.112-1.85-1.436-2.099
		c0.09-0.241,0.18-0.483,0.271-0.724c1.113,0.031,1.59,0.832,1.933,1.702c0.152,0.387,0.14,0.804,0.712,0.732
		c-0.807,1.952-0.929,4.008-0.92,6.083c-0.13,0.085-0.366,0.16-0.374,0.255c-0.192,2.429-0.301,4.929,1.056,7.041
		c3.196,4.978,9.377,6.029,14.231,2.945c1.666-1.059,1.879-2.417,0.584-3.889c-0.192-0.219-0.366-0.432-0.379-0.735
		c0.313-0.398,0.626-0.798,0.938-1.196c0.488-0.203,0.893-0.463,1.153-0.979c0.712-1.405,0.299-5.091-0.763-6.362
		c-0.053-0.556-0.105-1.112-0.158-1.668c0.256-0.024,0.469,0.067,0.673,0.218c0.523,0.387,0.727,0.214,0.893-0.395
		c0.187-0.682,0.199-1.354,0.199-2.039c0.001-2.227-0.025-4.455,0.013-6.681c0.016-0.896,0.162-1.793,1.239-2.099
		c0.23,0.395,0.157,0.795,0.026,1.198c-0.764,0.129-0.782,0.729-0.783,1.3c-0.007,7.42-0.017,14.841,0.004,22.261
		c0.005,1.692,1.047,2.705,2.721,2.776c0.445,0.019,0.893,0.018,1.338,0c1.681-0.065,2.737-1.071,2.742-2.754
		c0.022-7.421,0.015-14.841,0.002-22.262C198.375,10.463,198.235,9.745,197.425,9.413z"/>
	<path fill-rule="evenodd" clip-rule="evenodd" fill="#DFE0E2" d="M39.752,36.476c-0.323-0.004-0.647-0.008-0.97-0.012
		c-0.317-0.389-0.742-0.504-1.22-0.484c-0.104-0.197-0.286-0.239-0.486-0.244c-0.521-0.409-1.052-0.801-1.707-0.975
		c-0.082-0.081-0.163-0.163-0.245-0.244c-0.387-0.588-0.873-1.075-1.461-1.461c-0.162-0.164-0.324-0.327-0.485-0.49
		c-0.004-0.202-0.045-0.385-0.246-0.487c-0.038-0.387-0.172-0.726-0.486-0.975c-0.282-1.118-0.662-2.223-0.493-3.406
		c0-0.816,0-1.632,0-2.447c0.002-0.433-0.024-0.868,0.015-1.298c0.038-0.421-0.244-1.005,0.49-1.132
		c0.149,1.134,0.299,2.269,0.448,3.402c-0.954,0.337-0.221,0.989-0.188,1.42c0.428,5.443,4.258,8.003,8.481,8.012
		c4.473,0.009,7.645-2.267,8.498-7.105c0.209-1.186,0.722-2.448-0.057-3.648c0.146-1.432,0.12-2.861-0.054-4.289
		c0.612,0.119,0.693,1.333,1.517,0.854c0.671-0.39,0.329-1.193,0.336-1.807c0.032-2.839-0.012-5.679,0.032-8.517
		c0.012-0.794-0.139-1.79,1.071-1.989c0.017,3.156,0.036,6.313,0.052,9.469c0.021,4.333,0.041,8.665,0.061,12.997
		c0.007,0.364,0.047,0.731,0.015,1.093c-0.194,2.223,1.32,2.962,3.246,2.401c1.333-0.388,2.474-0.299,3.765,0.049
		c4.974,1.34,8.393-1.42,9.052-6.36c0.134-1.004,0.625-2.037,0.024-3.058c0.083-1.138,0.165-2.275,0.247-3.413
		c0.437,0.037,0.423,0.356,0.494,0.688c0.38,1.791,0.186,3.603,0.233,5.405c-0.201,0.106-0.243,0.289-0.238,0.495
		c0.137,0.832-0.296,1.606-0.25,2.43c-0.004,0.161-0.007,0.322-0.011,0.482c-0.832,0.984-1.072,2.378-2.187,3.166
		c-0.702,0.005-1.204,0.312-1.468,0.975c-0.079,0-0.158,0.002-0.236,0.006c-1.981,0.469-3.981,0.834-5.97,0.144
		c-0.965-0.334-1.823-0.236-2.815-0.073c-3.335,0.548-5.072,0.136-4.866-3.239c0-0.162,0-0.323,0-0.484
		c0.001-1.248,0.004-2.496,0.001-3.743c0-0.329-0.018-0.701-0.411-0.775c-0.431-0.082-0.528,0.295-0.585,0.61
		c-0.317,1.757-1.193,3.29-1.924,4.881c-0.029,0.486-0.348,0.754-0.734,0.969c-1.566,0.524-2.89,1.531-4.383,2.201
		c-0.242,0.003-0.485,0.007-0.728,0.01C41.87,36.476,40.812,36.476,39.752,36.476z"/>
	<path fill-rule="evenodd" clip-rule="evenodd" fill="#DFE0E2" d="M137.857,22.317c0.059,1.054,0.116,2.108,0.174,3.163
		c-0.193,0.106-0.31,0.275-0.3,0.49c0.103,2.149,0.341,4.31,1.623,6.097c3.174,4.422,10.258,4.819,13.596,1.627
		c0.739-0.707,0.813-1.553,0.365-2.434c-0.183-0.359-0.449-0.674-0.511-1.089c0.058-0.044,0.122-0.065,0.194-0.064
		c0.953-0.065,1.25,0.676,1.482,1.34c0.303,0.863,0.26,1.728-0.446,2.463c-1.614,1.683-3.55,2.464-5.9,2.659
		c-2.392,0.199-4.577-0.195-6.624-1.332c-2.444-1.358-3.798-3.536-4.395-6.24c-0.088-0.399,0.021-1.094-0.488-1.146
		c-0.595-0.061-0.55,0.688-0.729,1.074c-1.311,2.82-3.246,5.043-6.146,6.241c-3.932,1.626-8.05,1.507-12.174,1.016
		c-0.79-0.094-1.314-0.649-1.499-1.423c-0.15-0.624-0.277-1.272-0.279-1.911c-0.02-6.454-0.064-12.91,0.048-19.362
		c0.016-0.936-0.271-2.286,1.065-2.86c0.018,4.809,0.034,9.618,0.053,14.427c0.009,2.183,0.025,4.364,0.038,6.547
		c-0.001,0.324-0.003,0.648-0.002,0.973c0.004,2.129,0.536,2.693,2.637,2.666c2.262-0.029,4.535,0.189,6.783-0.236
		c2.523-0.479,4.785-1.481,6.52-3.435c2.243-2.526,2.876-5.534,2.509-8.815c0.033-1.686,0.066-3.372,0.099-5.057
		c0.231,0.005,0.461,0.011,0.692,0.017c0.004,0.24,0.007,0.48,0.011,0.721c0.001,1.003-0.035,2.008,0.017,3.008
		c0.031,0.604-0.342,1.406,0.381,1.757C137.393,23.558,137.257,22.359,137.857,22.317z"/>
	<path fill-rule="evenodd" clip-rule="evenodd" fill="#F6F7F7" d="M268.115,15.75c0-0.244,0-0.487,0-0.73
		c1.771,0.654,2.498,2.063,2.107,4.595c-0.153,0.995-0.021,2.074-0.79,2.989c-0.821,0.978-1.933,0.978-2.969,1.143
		c-1.17,0.186-1.582,0.759-1.566,1.876c0.032,2.354,0.096,4.714-0.024,7.063c-0.067,1.321,0.047,2.723-1.075,3.854
		c-0.685,0.689-1.448,0.657-2.218,0.731c-2.024,0.196-4.083,0.416-5.343-1.763c-0.318-0.551-0.787-0.528-1.23-0.168
		c-1.938,1.577-4.251,2.206-6.646,2.29c-2.576,0.091-5.044-0.555-7.183-2.124c-0.85-0.623-1.596-1.332-2.241-2.189
		c-0.789-1.047-1.123-0.964-1.891,0.121c-0.94,1.328-1.955,2.586-3.459,3.334c-1.446,0.718-2.949,1.004-4.559,0.706
		c-0.818-0.151-1.411,0.188-1.382,1.076c0.033,1.022-0.182,2.01-0.264,3.015c-0.107,1.314-1.123,2.306-2.419,2.46
		c-1.243,0.148-2.455,0.228-3.718,0.024c-1.574-0.254-2.424-1.083-2.66-2.625c-0.353-2.305-0.143-4.611-0.221-6.915
		c-0.013-0.396,0.116-0.909-0.343-1.081c-0.487-0.182-0.666,0.313-0.896,0.636c-0.306,0.427-0.591,0.89-1.197,0.935
		c-0.004-0.331-0.008-0.663-0.011-0.993c0.005-0.155,0.01-0.311,0.015-0.466c0.649-0.022,0.787-0.68,1.215-0.978
		c0.408,0.002,0.536-0.319,0.67-0.608c0.441-0.948,0.94-1.013,1.523-0.122c0,2.762,0,5.523,0,8.285
		c-0.222,0.678-0.782,1.453,0.486,1.706c0.325,0.325,0.65,0.65,0.976,0.976c-0.05,0.6,0.278,0.748,0.813,0.735
		c0.921-0.023,1.844-0.008,2.766-0.007c0.368,0.001,0.748,0.023,0.809-0.486c0.604-0.208,1.01-0.614,1.219-1.218
		c0.763-0.271,0.559-0.733,0.242-1.219c0-0.975,0.001-1.949,0.001-2.924c0.834-0.926,1.948-0.78,3-0.72
		c3.468,0.199,5.666-1.654,7.246-4.46c0.859-1.525,0.802-1.555,2.087-0.289c0.075,0.073,0.224,0.073,0.338,0.107
		c0.081,0.082,0.161,0.163,0.242,0.245c0.257,1.205,0.987,1.937,2.193,2.192c0.081,0.081,0.163,0.162,0.244,0.243
		c0.028,0.523,0.493,0.583,0.83,0.774c3.506,1.994,9.454,1.557,12.514-1.565c0.486-0.497,0.929-0.677,1.264,0.17
		c0.915,2.321,4.699,3.329,6.675,1.8c0.245-0.188,0.4-0.391,0.397-0.701c0.004-0.239,0.008-0.479,0.012-0.72
		c0.674-0.123,0.473-0.663,0.476-1.067c0.015-2.632,0.005-5.265,0.008-7.896c0.002-1.87,0.756-2.693,2.61-2.719
		c1.044-0.016,1.741-0.495,2.302-1.302c0.875-1.258,0.331-2.672,0.426-4.011C269.584,16.795,269.092,16.067,268.115,15.75z"/>
	<path fill-rule="evenodd" clip-rule="evenodd" fill="#F4F4F5" d="M116.913,10.625c-1.337,0.574-1.049,1.925-1.065,2.86
		c-0.112,6.452-0.067,12.908-0.048,19.362c0.002,0.639,0.129,1.287,0.279,1.911c0.185,0.773,0.709,1.329,1.499,1.423
		c4.124,0.491,8.243,0.61,12.174-1.016c2.9-1.198,4.835-3.421,6.146-6.241c0.18-0.387,0.135-1.135,0.729-1.074
		c0.51,0.053,0.4,0.747,0.488,1.146c0.597,2.704,1.95,4.882,4.395,6.24c2.047,1.137,4.232,1.531,6.624,1.332
		c2.351-0.195,4.286-0.977,5.9-2.659c0.706-0.735,0.749-1.6,0.446-2.463c-0.232-0.664-0.529-1.405-1.482-1.34
		c0.085-0.6,0.732-0.858,0.866-1.428c0.871-0.007,1.195-0.627,1.351-1.319c0.158-0.703,0.187-1.435,0.282-2.152
		c0.044-0.327-0.162-0.815,0.388-0.867c0.413-0.038,0.679,0.299,0.781,0.653c0.805,2.781,2.077,5.396,2.851,8.195
		c0.604,2.184,1.209,3.054,3.757,3.235c1.813,0.13,3.791-0.208,4.426-2.321c0.069-0.233,0.251-0.295,0.458-0.328l0.015,0.009
		c-0.044,1.957-1.233,3.136-3.202,3.166c-0.568,0.009-1.136,0.001-1.704,0.001c-2.723,0-3.619-0.752-4.373-3.398
		c-0.509-1.786-1.152-3.535-1.787-5.282c-0.349-0.961-0.703-0.987-1.312-0.187c-0.268,0.354-0.509,0.729-0.789,1.071
		c-0.425,0.521-0.516,0.938-0.093,1.603c0.903,1.423,0.329,3.185-1.143,4.37c-4.181,3.369-11.991,2.906-15.54-1.951
		c-0.473-0.646-0.765-1.424-1.162-2.129c-0.495-0.881-0.973-0.947-1.5-0.105c-2.114,3.375-5.199,5.217-9.058,5.882
		c-0.317,0.054-0.638,0.12-0.957,0.121c-2.475,0.011-4.95,0.024-7.424-0.001c-1.705-0.018-2.815-1.023-2.821-2.673
		c-0.03-7.384-0.028-14.768,0.005-22.151c0.004-1.035,0.286-2.039,1.59-2.225C116.906,10.139,116.91,10.382,116.913,10.625z"/>
	<path fill-rule="evenodd" clip-rule="evenodd" fill="#F6F7F7" d="M168.175,32.08c0.957-0.748,1.128-1.927,1.369-2.957
		c0.271-1.161,0.926-2.152,1.171-3.303c0.068-0.318,0.287-0.599,0.701-0.529c0.455,0.077,0.403,0.443,0.405,0.759
		c0.01,1.575,0.013,3.148,0.641,4.64c1.598,3.797,4.565,5.79,8.548,6.229c2.856,0.314,5.537-0.346,7.884-2.143
		c0.477-0.365,0.73-0.854,1.089-1.283c0.184-0.221,0.313-0.501,0.669-0.37c0.25,0.092,0.397,0.295,0.403,0.557
		c0.027,1.337,0.514,2.48,1.865,2.808c1.563,0.379,3.209,0.567,4.722-0.276c0.847-0.473,1.182-1.306,1.224-2.241
		c0.034-0.77,0.05-1.545-0.003-2.313c-0.064-0.926,0.254-1.404,1.235-1.29l0.007-0.005c0.072,1.965,1.278,3.241,2.675,4.398
		c2.06,1.706,4.462,2.18,7.059,1.947c0.625,0.313,1.244,0.586,1.706-0.243c0.642,0.091,1.172-0.207,1.705-0.492
		c0.602,0.396,0.824,0.029,0.975-0.483c0.244-0.163,0.487-0.325,0.731-0.487c0.243,0,0.487,0,0.73,0
		c-0.104,0.746-0.68,1.062-1.261,1.359c-4.199,2.159-9.468,1.581-13.085-1.704c-0.179-0.161-0.337-0.353-0.473-0.553
		c-0.247-0.365-0.46-0.897-0.979-0.72c-0.449,0.154-0.451,0.723-0.514,1.147c-0.27,1.813-0.997,2.354-2.817,2.711
		c-1.283,0.252-2.482,0.031-3.719-0.055c-0.902-0.063-1.504-0.653-1.918-1.347c-0.522-0.875-1.074-1.019-1.857-0.399
		c-1.848,1.464-4.037,2.115-6.308,2.196c-4.678,0.166-9.954-2.322-11.264-7.853c-0.118-0.501,0.006-1.396-0.641-1.41
		c-0.512-0.012-0.605,0.838-0.793,1.358c-0.369,1.027-0.753,2.05-1.123,3.077c-0.148,0.41-0.183,0.902-0.762,0.973l-0.015-0.009
		C168.164,33.211,168.17,32.646,168.175,32.08z"/>
	<path fill-rule="evenodd" clip-rule="evenodd" fill="#F0F0F1" d="M86.045,9.417c0-0.325-0.001-0.649-0.001-0.975
		c1.142,0.234,1.698,1.05,1.709,2.626c0.019,2.625,0.005,5.252,0.005,7.878c0,0.243,0.001,0.485,0.001,0.728
		c0,0.329-0.003,0.697,0.357,0.827c0.418,0.15,0.531-0.249,0.7-0.508c0.145-0.221,0.352-0.323,0.606-0.346
		c-0.081,0.649-0.162,1.299-0.243,1.948c-0.785,0.372-0.673,1.112-0.679,1.765c-0.022,2.416-0.007,4.833-0.005,7.249
		c-0.851,0.07-0.964,0.603-1.006,1.351c-0.063,1.141,0.383,2.34-0.391,3.422c-0.606,0.848-1.323,1.382-2.412,1.332
		c-0.729-0.034-1.461-0.001-2.192-0.008c-1.734-0.018-2.772-1.063-2.774-2.822c-0.005-6.13,0.026-12.259-0.021-18.388
		c-0.012-1.563-0.164-3.12,0.005-4.688c0.092-0.856,0.226-1.61,1.189-1.881c0,0.243,0.001,0.486,0.002,0.729
		c-0.663,0.188-0.676,0.738-0.683,1.268c-0.015,1.096-0.006,2.193-0.006,3.29c0,6.539-0.004,13.077,0.006,19.616
		c0.002,1.28,0.823,2.24,1.969,2.385c2.762,0.348,4.448-0.251,4.802-1.71c0.038-0.155,0.041-0.322,0.041-0.483
		c0.002-7.716,0.006-15.432-0.007-23.148C87.016,10.212,86.897,9.549,86.045,9.417z"/>
	<path fill-rule="evenodd" clip-rule="evenodd" fill="#DFE0E2" d="M168.175,32.08c-0.005,0.565-0.011,1.131-0.017,1.695
		c-0.207,0.033-0.389,0.095-0.458,0.328c-0.635,2.113-2.613,2.451-4.426,2.321c-2.548-0.182-3.153-1.052-3.757-3.235
		c-0.773-2.8-2.046-5.414-2.851-8.195c-0.103-0.354-0.368-0.691-0.781-0.653c-0.55,0.052-0.344,0.54-0.388,0.867
		c-0.096,0.718-0.124,1.449-0.282,2.152c-0.155,0.692-0.479,1.313-1.351,1.319c-0.115-0.162-0.229-0.323-0.345-0.484
		c0.974-1.167,0.773-2.562,0.763-3.919c0.104-2.02-0.08-4.014-0.525-5.985c0.618-0.854,0.864-2.053,2.132-2.308
		c0.196,0.385,0.368,0.777,0.358,1.223c-0.961,0.176-1.104,0.8-0.905,1.629c0.377,1.576,0.997,3.068,1.535,4.589
		c1.223,3.458,2.388,6.937,3.638,10.385c0.59,1.628,1.365,1.984,3.583,1.923c1.708-0.048,2.515-0.668,3.088-2.197
		c0.252-0.675,0.16-1.548,0.97-1.953C168.163,31.748,168.169,31.914,168.175,32.08z"/>
	<path fill-rule="evenodd" clip-rule="evenodd" fill="#F0F0F1" d="M69.731,28.423c-0.048-1.803,0.147-3.614-0.233-5.405
		c-0.071-0.331-0.058-0.65-0.494-0.688c-0.157-1.138-0.313-2.275-0.47-3.412c0.255,0.019,0.478,0.107,0.614,0.335
		c0.212,0.355,0.416,0.771,0.925,0.552c0.462-0.198,0.379-0.665,0.387-1.066c0.002-0.122-0.039-0.263,0.008-0.362
		c0.861-1.835,0.575-3.569-0.174-5.401c-0.444-1.088,0.519-2.684,1.481-3.097c0.208,0.264,0.199,0.688,0.599,0.811
		c-0.329,0.953-1.065,1.854-0.375,2.936c-0.024,1.196-0.049,2.393-0.073,3.589c-0.809,0.39-0.734,1.139-0.734,1.845
		c-0.004,4.843,0.005,9.686-0.01,14.528c-0.002,0.653,0.072,1.281,0.252,1.902c-0.73-0.164-0.716-0.752-0.726-1.307
		c-0.015-0.863-0.004-1.728-0.005-2.592c-0.029-0.386,0.135-0.895-0.328-1.069c-0.501-0.189-0.45,0.438-0.708,0.633
		c-0.121,0.091-0.28,0.13-0.422,0.193c-0.047-0.823,0.387-1.598,0.25-2.43C69.796,28.859,70.102,28.804,69.731,28.423z"/>
	<path fill-rule="evenodd" clip-rule="evenodd" fill="#F0F0F1" d="M32.458,22.82c-0.734,0.127-0.452,0.711-0.49,1.132
		c-0.039,0.43-0.013,0.865-0.015,1.298c-0.951,0.813-0.951,1.633,0,2.447c-0.169,1.184,0.21,2.288,0.493,3.406
		c-0.21-0.021-0.383-0.097-0.504-0.288c-0.131-0.208-0.29-0.427-0.577-0.329c-0.317,0.109-0.375,0.398-0.376,0.694
		c-0.004,0.853,0.004,1.704-0.007,2.556c-0.023,1.831-1.131,2.944-2.955,2.969c-0.771,0.011-1.542,0.002-2.312,0.002
		c-0.37,0-0.758,0.032-0.826-0.483l0.003-0.004c1.135,0,2.269,0.011,3.404-0.003c1.067-0.013,1.91-0.606,2.063-1.563
		c0.237-1.485,0.389-3.029-0.103-4.525c0.001-0.813,0.002-1.625,0.003-2.437c0.688-0.657,0.688-1.781,0-2.438
		c-0.001-0.813-0.002-1.625-0.003-2.438c0.076-0.137,0.217-0.272,0.218-0.41c0.014-3.436,0.034-6.872-0.002-10.307
		c-0.006-0.604-0.238-1.219-1.053-1.231c-0.002-0.244-0.005-0.488-0.007-0.732c1.272,0,1.533,0.916,1.556,1.879
		c0.054,2.23,0.017,4.462,0.018,6.693c0,0.284-0.018,0.57,0.008,0.852c0.139,1.561,0.308,1.666,1.665,1.063
		C32.467,21.344,32.404,22.076,32.458,22.82z"/>
	<path fill-rule="evenodd" clip-rule="evenodd" fill="#132C43" d="M72.374,10.689c-0.4-0.122-0.391-0.547-0.599-0.811
		c-0.176-1.897,0.697-3.193,2.257-3.355c1.657-0.172,2.816,0.835,3.048,2.649c-0.012,0.244-0.023,0.488-0.035,0.732
		c-0.068,0.032-0.089,0.084-0.063,0.154c-0.238,0.261-0.475,0.521-0.713,0.781C74.938,11.627,73.638,11.613,72.374,10.689z"/>
	<path fill-rule="evenodd" clip-rule="evenodd" fill="#F4F4F5" d="M162.403,21.103c-0.028-0.158-0.057-0.316-0.084-0.475
		c0.316-0.551,0.113-0.938-0.389-1.231c-0.029-0.159-0.059-0.318-0.089-0.478c0.358-0.317,0.123-0.418-0.18-0.496
		c-0.219-0.719-0.512-1.42-0.553-2.185c1.028,0.215,1.178,1.115,1.443,1.898c0.219,0.643,0.254,1.343,0.596,1.952
		c0.164,0.292,0.321,0.567,0.728,0.513c0.369-0.049,0.383-0.37,0.479-0.622c0.374-0.973,0.517-2.03,1.091-2.933
		c0.183-0.288,0.349-0.541,0.718-0.567c-0.561,2.213-1.104,4.431-1.862,6.588c-0.742,0.02-1.166-0.31-1.267-1.073
		C162.985,21.61,162.869,21.218,162.403,21.103z"/>
	<path fill-rule="evenodd" clip-rule="evenodd" fill="#F4F4F5" d="M217.438,21.349c-0.104-0.645-0.209-1.289-0.313-1.933
		c0.952,0.474,1.473,0.525,1.573-0.879c0.068-0.963,0.054-2.349,1.602-2.542c0,0.325-0.001,0.65-0.001,0.976
		c-0.07,0.09-0.142,0.181-0.212,0.271l0.017-0.005c-0.309,0.032-0.666,0.037-0.262,0.468c-0.005,0.162-0.01,0.323-0.015,0.485
		c0.001,0.082,0.002,0.164,0.003,0.246c0,0,0,0,0,0c-0.603,0.08-0.48,0.548-0.485,0.93c-0.011,0.886,0.007,1.772-0.009,2.657
		c-0.008,0.423,0.161,1.02-0.381,1.152c-0.647,0.157-0.559-0.546-0.724-0.901C218.05,21.877,218.023,21.386,217.438,21.349z"/>
	<path fill-rule="evenodd" clip-rule="evenodd" fill="#F4F4F5" d="M257.874,15.989c0.223,0.393,0.153,0.793,0.026,1.194
		c-0.754,0.135-0.776,0.728-0.785,1.302c-0.017,1.052-0.006,2.105-0.009,3.158c-0.001,0.377-0.031,0.766-0.479,0.87
		c-0.461,0.106-0.633-0.208-0.751-0.595c-0.104-0.342-0.197-0.716-0.625-0.823c-0.098-0.646-0.195-1.291-0.294-1.936
		c0.884,0.098,1.392-0.095,1.502-1.174C256.541,17.182,256.729,16.169,257.874,15.989z"/>
	<path fill-rule="evenodd" clip-rule="evenodd" fill="#F0F0F1" d="M239.061,20.136c-0.08,0.973-0.159,1.946-0.238,2.919
		c-0.827,0.646-1.472,0.723-1.687-0.54c-0.046-0.273-0.221-0.4-0.481-0.436c-0.147-1.055-0.295-2.11-0.443-3.166
		c0.42,0.031,0.59,0.333,0.757,0.664C237.716,21.06,237.72,21.058,239.061,20.136z"/>
	<path fill-rule="evenodd" clip-rule="evenodd" fill="#F4F4F5" d="M137.857,22.317c-0.601,0.042-0.465,1.24-1.209,0.879
		c-0.723-0.351-0.35-1.153-0.381-1.757c-0.052-1-0.016-2.005-0.017-3.008c0.354,0.011,0.479,0.247,0.532,0.547
		c0.14,0.792,0.631,1.049,1.383,0.912C138.063,20.7,137.961,21.508,137.857,22.317z"/>
	<path fill-rule="evenodd" clip-rule="evenodd" fill="#F0F0F1" d="M136.24,17.711c-0.23-0.006-0.461-0.011-0.692-0.017
		c-0.166-0.894-0.332-1.787-0.498-2.68C136.046,15.649,136.347,16.59,136.24,17.711z"/>
	<path fill-rule="evenodd" clip-rule="evenodd" fill="#F0F0F1" d="M215.686,35.002c-0.243,0-0.487,0-0.73,0
		c0.242-0.328,0.485-0.655,0.728-0.983c0.078-0.004,0.156-0.008,0.235-0.012c0.003,0.331,0.007,0.663,0.011,0.994
		C215.848,35.001,215.767,35.002,215.686,35.002z"/>
	<path fill-rule="evenodd" clip-rule="evenodd" fill="#C4CCCE" d="M8.592,31.707c0.673-0.13,0.45-0.669,0.447-1.061
		c-0.025-3.089-0.074-6.179-0.115-9.268c1.152-0.182,1.528,0.754,1.78,1.486c1.078,3.132,2.341,6.191,3.502,9.29
		c0.909,2.425,1.053,2.588,3.621,2.614c-0.648,1.015-1.656,0.216-2.451,0.486c-0.24-0.164-0.48-0.329-0.72-0.493
		c-0.03-0.534-0.038-1.081-0.728-1.223c-0.151-0.187-0.401-0.354-0.438-0.561c-0.398-2.247-1.843-4.056-2.56-6.167
		c-0.156-0.459-0.42-0.975-1.04-0.78c-0.586,0.185-0.343,0.756-0.349,1.161c-0.024,1.944,0.006,3.89-0.022,5.834
		c-0.012,0.844-0.006,1.782-0.751,2.335c-1.38,1.024-2.96,0.754-4.406,0.25c-1.116-0.389-1.131-1.589-1.135-2.597
		c-0.02-6.563-0.011-13.128-0.009-19.691c0-0.642,0.011-1.286,0.6-1.726c0.022,4.94,0.045,9.879,0.065,14.82
		c0.005,1.458,0,2.917,0.001,4.375c0,0.4-0.078,0.845,0.514,0.911c0.008,0.564,0.015,1.13,0.025,1.694
		c0.013,0.705,0.438,1.143,1.046,1.324c2.067,0.617,3.08-0.148,3.101-2.289C8.574,32.19,8.585,31.949,8.592,31.707z"/>
	<path fill-rule="evenodd" clip-rule="evenodd" fill="#B4B7BA" d="M17.828,34.769c-2.568-0.026-2.712-0.189-3.621-2.614
		c-1.161-3.099-2.425-6.158-3.502-9.29c-0.252-0.731-0.628-1.667-1.78-1.486c-0.178-0.649-0.107-1.309-0.089-1.967
		c0.468,0.001,0.937,0.001,1.405,0.002c1.399,3.742,2.793,7.486,4.208,11.223c0.147,0.39,0.136,0.917,0.684,1.061
		c0.09,0.264,0.175,0.529,0.272,0.79c0.227,0.606,0.442,1.227,1.237,1.289c0.883,0.07,1.141-0.606,1.423-1.224
		c0.13-0.283,0.176-0.604,0.26-0.909c1.452-3.854,2.903-7.71,4.357-11.564c0.085-0.226,0.189-0.445,0.285-0.667
		c0.553-0.081,1.107-0.163,1.66-0.244c-0.025,0.65-0.051,1.301-0.076,1.951c-1.146,0.083-1.45,1.051-1.844,1.851
		c-1.052,2.134-1.611,4.454-2.441,6.673c0.037,0.354-0.085,0.666-0.249,0.968c-0.844,0.797-0.829,1.943-1.198,2.934
		C18.811,34.213,18.513,34.646,17.828,34.769z"/>
	<path fill-rule="evenodd" clip-rule="evenodd" fill="#E7E8E9" d="M3.82,11.597c-0.589,0.44-0.6,1.084-0.6,1.726
		c-0.002,6.563-0.011,13.128,0.009,19.691c0.003,1.008,0.019,2.208,1.135,2.597c1.446,0.504,3.026,0.774,4.406-0.25
		c0.746-0.553,0.74-1.491,0.751-2.335c0.028-1.944-0.002-3.89,0.022-5.834c0.005-0.405-0.237-0.977,0.349-1.161
		c0.62-0.194,0.884,0.321,1.04,0.78c0.717,2.111,2.162,3.92,2.56,6.167c0.037,0.206,0.287,0.374,0.438,0.561
		c0.078,0.506,0.237,0.963,0.728,1.223c0.24,0.164,0.48,0.329,0.72,0.493c0.083,0.797,0.972,0.226,1.23,0.725
		c-0.174,0.292-0.47,0.229-0.736,0.254c-0.405-0.085-0.81-0.17-1.215-0.255c-0.156-0.331-0.399-0.574-0.731-0.73
		c-0.246-0.567-0.491-1.136-0.737-1.703c0.003-0.206-0.04-0.389-0.243-0.492c-0.082-0.242-0.163-0.484-0.244-0.727
		c-0.094-0.435-0.147-0.886-0.487-1.223c-0.323-0.646-0.644-1.294-0.968-1.939c-0.158-0.313-0.376-0.551-0.765-0.432
		c-0.374,0.114-0.448,0.434-0.448,0.776c-0.003,1.299,0.004,2.598-0.006,3.896c-0.017,2.222-0.871,3.055-3.115,3.059
		c-3.694,0.006-4.193-0.493-4.193-4.19c0-6.413-0.016-12.826,0.019-19.239c0.005-0.907-0.167-2.002,1.07-2.413
		C3.812,10.947,3.815,11.272,3.82,11.597z"/>
	<path fill-rule="evenodd" clip-rule="evenodd" fill="#D3D6D7" d="M30.26,27.692c-0.001,0.812-0.002,1.624-0.003,2.437
		c-0.524,1.155-0.164,2.373-0.232,3.56c-0.081,1.389-0.683,2.034-2.097,2.043c-1.091,0.007-2.182-0.005-3.272-0.009
		c0-0.078-0.003-0.155-0.008-0.232c-0.562-1.18-0.714-2.391-0.271-3.646c0.518,0.407,0.248,0.977,0.275,1.471
		c0.068,1.208,0.489,1.652,1.708,1.68c2.301,0.051,3.082,0.201,2.922-2.895c-0.008-0.161,0.007-0.323,0.011-0.485
		c0.018-6.23,0.035-12.461,0.057-18.692c0.001-0.442,0.047-0.883,0.073-1.325c0.798,0.033,0.58,0.644,0.583,1.083
		c0.014,2.959,0.001,5.918,0.016,8.877c0.002,0.425-0.165,0.902,0.237,1.26c0.001,0.813,0.002,1.625,0.003,2.438
		C29.873,26.067,29.872,26.88,30.26,27.692z"/>
	<path fill-rule="evenodd" clip-rule="evenodd" fill="#ADB1B4" d="M29.292,31.615c-0.004,0.162-0.019,0.324-0.011,0.485
		c0.16,3.096-0.621,2.945-2.922,2.895c-1.219-0.027-1.641-0.472-1.708-1.68c-0.027-0.494,0.243-1.063-0.275-1.471
		c0.014-0.089,0.027-0.177,0.04-0.266C26.041,31.591,27.667,31.604,29.292,31.615z"/>
	<path fill-rule="evenodd" clip-rule="evenodd" fill="#D3D6D7" d="M16.607,35.979c-0.258-0.499-1.147,0.072-1.23-0.725
		c0.795-0.271,1.803,0.528,2.451-0.486c0.685-0.122,0.983-0.556,0.989-1.226c1.147-0.673,0.855-1.933,1.198-2.934
		c0.164-0.302,0.286-0.614,0.249-0.968c0.519-0.05,0.589-0.479,0.724-0.854c0.473-1.325,0.882-2.679,1.444-3.965
		c0.407-0.931,0.527-2.215,1.992-2.245c-0.022,2.194-0.044,4.389-0.066,6.583c-0.148-0.001-0.295-0.003-0.443-0.005
		c0-0.406,0-0.812,0-1.218c0.002-0.566,0.024-1.133,0-1.698c-0.016-0.368,0.163-0.873-0.451-0.954
		c-0.506-0.066-0.727,0.301-0.868,0.69c-0.382,1.056-0.739,2.121-1.105,3.182c-0.083,0.243-0.165,0.485-0.248,0.728
		c-0.234,0.324-0.583,0.615-0.685,0.977c-0.542,1.908-1.188,3.746-2.745,5.104C17.411,35.97,17.009,35.975,16.607,35.979z"/>
	<path fill-rule="evenodd" clip-rule="evenodd" fill="#AFB4B6" d="M8.592,31.707c-0.007,0.242-0.018,0.483-0.021,0.726
		c-0.021,2.141-1.034,2.906-3.101,2.289c-0.608-0.182-1.033-0.619-1.046-1.324c-0.01-0.564-0.017-1.13-0.025-1.694
		C5.797,31.602,7.195,31.598,8.592,31.707z"/>
	<path fill-rule="evenodd" clip-rule="evenodd" fill="#E7E8E9" d="M30.257,22.817c-0.402-0.357-0.235-0.834-0.237-1.26
		c-0.015-2.959-0.002-5.918-0.016-8.877c-0.002-0.438,0.215-1.049-0.583-1.083c0-0.243-0.001-0.486-0.002-0.729
		c0.815,0.012,1.047,0.627,1.053,1.231c0.036,3.436,0.017,6.872,0.002,10.307C30.475,22.545,30.333,22.681,30.257,22.817z"/>
	<path fill-rule="evenodd" clip-rule="evenodd" fill="#9C9EA4" d="M18.323,31.643c-0.084,0.305-0.13,0.626-0.26,0.909
		c-0.282,0.617-0.54,1.294-1.423,1.224c-0.794-0.063-1.01-0.683-1.237-1.289c-0.098-0.261-0.182-0.526-0.272-0.79
		C16.195,31.679,17.259,31.66,18.323,31.643z"/>
	<path fill-rule="evenodd" clip-rule="evenodd" fill="#BEC1C4" d="M24.423,22.577c-1.465,0.03-1.585,1.314-1.992,2.245
		c-0.562,1.286-0.971,2.64-1.444,3.965c-0.135,0.376-0.205,0.805-0.724,0.854c0.831-2.219,1.39-4.539,2.441-6.673
		c0.394-0.8,0.697-1.767,1.844-1.851C24.646,21.617,24.624,22.104,24.423,22.577z"/>
	<path fill-rule="evenodd" clip-rule="evenodd" fill="#9C9EA4" d="M24.625,19.167c-0.553,0.081-1.107,0.163-1.66,0.244
		c0.564-1.648,1.128-3.295,1.692-4.943C24.922,16.078,24.752,17.622,24.625,19.167z"/>
	<path fill-rule="evenodd" clip-rule="evenodd" fill="#9C9EA4" d="M10.24,19.413c-0.468,0-0.937-0.001-1.405-0.002
		c-0.108-1.605-0.216-3.21-0.324-4.815C9.58,16.049,9.758,17.782,10.24,19.413z"/>
	<path fill-rule="evenodd" clip-rule="evenodd" fill="#E7E8E9" d="M23.914,29.155c0.147,0.002,0.295,0.004,0.443,0.005
		c0.02,0.807,0.039,1.612,0.059,2.419c-0.013,0.089-0.026,0.177-0.04,0.266c-0.442,1.255-0.291,2.466,0.271,3.646
		c-0.562-0.009-0.851-0.439-0.87-0.854C23.694,32.809,23.417,30.97,23.914,29.155z"/>
	<path fill-rule="evenodd" clip-rule="evenodd" fill="#B4B7BA" d="M135.45,22.751c0.367,3.281-0.267,6.289-2.509,8.815
		c-1.734,1.953-3.997,2.956-6.52,3.435c-2.248,0.426-4.521,0.207-6.783,0.236c-2.101,0.027-2.632-0.537-2.637-2.666
		c-0.001-0.324,0.001-0.648,0.002-0.973c2.348,0.001,4.7-0.095,7.042,0.023c4.692,0.237,9.794-2.634,11.153-8.198
		C135.256,23.193,135.365,22.976,135.45,22.751z"/>
	<path fill-rule="evenodd" clip-rule="evenodd" fill="#D3D6D7" d="M129.669,24.037c-0.475-0.703-0.204-1.492-0.222-2.236
		c-0.044-1.901-0.561-3.535-2.061-4.841c-1.017-0.885-2.145-1.12-3.376-0.934c-0.893,0.134-1.186,0.816-1.179,1.702
		c0.025,3.239,0.011,6.478,0.011,9.717c-0.729,0.151-1.012-0.11-1.004-0.885c0.038-3.76,0.031-7.52,0.041-11.279
		c3.28-1.416,5.742-0.644,7.799,2.458c0.167,0.252,0.354,0.433,0.657,0.475C130.396,20.186,130.552,22.171,129.669,24.037z"/>
	<path fill-rule="evenodd" clip-rule="evenodd" fill="#AFB4B6" d="M130.336,18.213c-0.303-0.042-0.49-0.223-0.657-0.475
		c-2.057-3.101-4.519-3.874-7.799-2.458c-0.009-1.014-0.025-2.027-0.024-3.041c0-0.352-0.056-0.707,0.45-0.856
		c2.433-0.717,5.916,0.635,7.075,2.863C130.018,15.471,130.359,16.809,130.336,18.213z"/>
	<path fill-rule="evenodd" clip-rule="evenodd" fill="#AFB4B6" d="M68.757,25.743c0.602,1.021,0.11,2.054-0.024,3.058
		c-0.659,4.94-4.078,7.7-9.052,6.36c-1.291-0.348-2.431-0.437-3.765-0.049c-1.926,0.561-3.44-0.179-3.246-2.401
		c0.032-0.361-0.008-0.729-0.015-1.093c0.853,0.008,1.708-0.03,2.556,0.036c1.188,0.092,2.255,0.104,1.986-1.75
		c2.625,3.219,7.917,2.666,10.157-0.817C68.025,28.044,68.222,26.828,68.757,25.743z"/>
	<path fill-rule="evenodd" clip-rule="evenodd" fill="#AFB4B6" d="M57.588,22.1c-0.012-0.807,0.017-1.618-0.046-2.421
		c-0.091-1.167,0.423-1.82,1.539-2.086c2.436-0.581,4.06,0.041,4.593,2.593c0.166,0.795,0.309,1.584,0.18,2.398
		c-0.273-0.021-0.41-0.208-0.556-0.415c-0.685-0.969-1.605-1.284-2.808-1.36C59.199,20.728,58.557,21.693,57.588,22.1z"/>
	<path fill-rule="evenodd" clip-rule="evenodd" fill="#D3D6D7" d="M57.588,22.1c0.969-0.407,1.611-1.372,2.902-1.292
		c1.203,0.076,2.124,0.391,2.808,1.36c0.146,0.207,0.283,0.394,0.556,0.415c-0.012,1.345,0.227,2.733-0.688,3.919
		c-0.157-1.35-0.097-2.758-1.217-3.813c-1.132-1.065-2.734-0.736-3.354,0.704c-0.538,1.249-0.238,2.563-0.339,3.846
		c-0.56-0.301-0.743-0.77-0.72-1.396C57.58,24.597,57.573,23.348,57.588,22.1z"/>
	<path fill-rule="evenodd" clip-rule="evenodd" fill="#D3D6D7" d="M236.654,22.079c0.261,0.035,0.436,0.162,0.481,0.436
		c0.215,1.263,0.859,1.186,1.687,0.54c0.102,1.031,0.204,2.063,0.306,3.096c-0.119,1.42-0.24,2.897,0.373,4.188
		c2.662,5.599,9.222,6.423,13.579,3.841c0.832-0.494,1.545-1.196,1.35-2.373c-0.112-0.675-0.781-0.916-1.021-1.475
		c0.174-0.151,0.347-0.302,0.521-0.453c0.235,0.276,0.463,0.561,0.709,0.826c1.081,1.167,1.062,2.122-0.058,3.289
		c-0.397,0.415-0.854,0.727-1.355,1.009c-3.376,1.896-6.787,1.735-10.234,0.232c-0.27-0.655-0.771-0.963-1.468-0.976
		c-0.4-0.571-0.886-1.058-1.457-1.458c0.013-0.518-0.12-0.928-0.731-0.981c0.027-0.35-0.091-0.661-0.258-0.959
		c-0.243-0.887-0.501-1.77-0.722-2.661c-0.08-0.324-0.213-0.511-0.562-0.479c-0.301,0.026-0.394,0.233-0.413,0.496
		c-0.071,0.93-0.496,1.763-0.731,2.646c-0.005,0.239-0.011,0.479-0.016,0.718c-0.661,0.16-0.558,0.773-0.726,1.227
		c-1.162,1.922-2.754,3.212-5.036,3.602c-1.274,0.217-2.479-0.34-3.732-0.188c-0.743,0.061-1.036,0.46-0.988,1.202
		c0.044,0.678,0.047,1.364,0.001,2.042c-0.098,1.422-0.021,2.971-1.98,3.29c-0.084,0.014-0.143,0.182-0.214,0.277
		c-1.056-0.018-2.122,0.113-3.154-0.23c-0.325-0.325-0.65-0.65-0.976-0.976c0.002-0.244,0.003-0.487,0.005-0.731
		c0.254-0.164,0.246-0.326-0.003-0.487c-0.001-0.162-0.002-0.324-0.003-0.486c0-2.763,0-5.525,0-8.287c0-0.243,0-0.486,0-0.729
		c0.002-4.224,0.003-8.447,0.005-12.67v0c0.175-0.083,0.171-0.165-0.003-0.246c0.005-0.162,0.01-0.323,0.014-0.485
		c0.093-0.099,0.186-0.197,0.277-0.295c0.403,0.409,0.215,0.922,0.216,1.385c0.013,6.229,0.002,12.457,0.02,18.687
		c0.001,0.425-0.279,1.018,0.438,1.211c0.005,0.568,0.009,1.136,0.013,1.704c0.005,0.758,0.426,1.229,1.113,1.398
		c2.382,0.585,3.271-0.114,3.272-2.522c0-0.203,0-0.405,0-0.608c0.038-0.973,0.076-1.945,0.113-2.918
		c0.873-0.691,1.781-0.723,2.91-0.597c1.921,0.216,3.913,0.46,5.557-1.246c2.068-2.146,2.86-4.613,2.573-7.509
		C236.447,24.956,236.551,23.518,236.654,22.079z"/>
	<path fill-rule="evenodd" clip-rule="evenodd" fill="#B4B7BA" d="M236.344,26.394c0.287,2.896-0.505,5.363-2.573,7.509
		c-1.644,1.706-3.636,1.462-5.557,1.246c-1.129-0.126-2.037-0.095-2.91,0.597c0.001-1.729,0.001-3.459,0.001-5.305
		c0.96,0.454,1.738,1.179,2.764,1.392c3.215,0.669,5.754-0.56,7.32-3.507C235.727,27.689,235.788,26.918,236.344,26.394z"/>
	<path fill-rule="evenodd" clip-rule="evenodd" fill="#AFB4B6" d="M229.107,17.427c1.036,0.079,1.671,0.707,2.095,1.58
		c0.55,1.129,0.778,2.331,0.692,3.588c-0.435-0.127-0.565-0.562-0.826-0.854c-0.9-1.007-2.018-1.27-3.293-1.093
		c-1.024,0.142-1.609,1.034-2.47,1.458c0.009-1.235-0.509-2.525,0.388-3.666C226.948,18.494,228.007,17.891,229.107,17.427z"/>
	<path fill-rule="evenodd" clip-rule="evenodd" fill="#D3D6D7" d="M225.306,22.106c0.86-0.424,1.445-1.316,2.47-1.458
		c1.275-0.177,2.393,0.086,3.293,1.093c0.261,0.292,0.392,0.727,0.826,0.854c-0.021,1.162-0.005,2.33-0.558,3.406
		c-0.392-0.238-0.266-0.633-0.296-0.98c-0.088-0.995-0.426-1.863-1.189-2.554c-0.621-0.562-1.371-0.895-2.09-0.5
		c-0.705,0.388-1.411,0.933-1.37,1.961c0.046,1.166,0.012,2.336,0.013,3.504c-0.857-0.474-1.266-1.158-1.183-2.177
		C225.307,24.21,225.282,23.156,225.306,22.106z"/>
	<path fill-rule="evenodd" clip-rule="evenodd" fill="#B4B7BA" d="M225.19,38.663c0,0.203,0,0.405,0,0.608
		c-0.002,2.408-0.891,3.107-3.272,2.522c-0.688-0.169-1.108-0.641-1.113-1.398c-0.004-0.568-0.008-1.136-0.013-1.704
		c0.328,0,0.655-0.001,0.983-0.002c0.001,0.16,0.008,0.321,0,0.481c-0.037,0.852,0.187,1.606,1.161,1.641
		c1.052,0.037,1.313-0.73,1.279-1.641c-0.006-0.16,0-0.321,0.001-0.481C224.541,38.681,224.866,38.672,225.19,38.663z"/>
	<path fill-rule="evenodd" clip-rule="evenodd" fill="#ADB1B4" d="M224.217,38.689c-0.001,0.16-0.007,0.321-0.001,0.481
		c0.034,0.91-0.228,1.678-1.279,1.641c-0.975-0.034-1.198-0.789-1.161-1.641c0.008-0.16,0.001-0.321,0-0.481
		C222.589,38.689,223.403,38.689,224.217,38.689z"/>
	<path fill-rule="evenodd" clip-rule="evenodd" fill="#AFBDC0" d="M229.107,17.427c-1.101,0.464-2.159,1.067-3.414,1.014
		C226.616,17.377,227.736,16.977,229.107,17.427z"/>
	<path fill-rule="evenodd" clip-rule="evenodd" fill="#E7E8E9" d="M220.119,17.409c-0.092,0.098-0.185,0.196-0.277,0.295
		c-0.403-0.431-0.046-0.436,0.263-0.468C220.107,17.293,220.112,17.351,220.119,17.409z"/>
	<path fill-rule="evenodd" clip-rule="evenodd" fill="#E7E8E9" d="M220.088,17.241c0.07-0.09,0.142-0.181,0.212-0.271
		C220.229,17.06,220.158,17.151,220.088,17.241z"/>
	<path fill-rule="evenodd" clip-rule="evenodd" fill="#ADB1B4" d="M90.542,28.632c3.336,3.702,7.332,4.244,11.814,2.472
		c0.107-0.043,0.237-0.029,0.356-0.041c1.517,0.954,1.576,1.521,0.106,2.401c-2.291,1.371-4.754,1.63-7.328,0.904
		c-2.455-0.692-4.179-2.185-5.107-4.573C90.223,29.381,89.994,28.952,90.542,28.632z"/>
	<path fill-rule="evenodd" clip-rule="evenodd" fill="#BEC1C4" d="M90.542,28.632c-0.548,0.32-0.319,0.749-0.159,1.163
		c0.928,2.389,2.653,3.881,5.107,4.573c2.574,0.726,5.037,0.467,7.328-0.904c1.469-0.88,1.411-1.447-0.106-2.401
		c0.275-0.344,0.634-0.563,1.042-0.713c1.351,1.254,1.421,2.606,0.152,3.692c-0.394,0.337-0.848,0.65-1.328,0.831
		c-4.476,1.681-10.512,1.455-13.129-4.707c-0.656-1.543-0.771-3.256-0.194-4.922C89.493,26.446,89.856,27.601,90.542,28.632z"/>
	<path fill-rule="evenodd" clip-rule="evenodd" fill="#DFE0E2" d="M89.255,25.244c-0.577,1.666-0.462,3.379,0.194,4.922
		c2.617,6.162,8.654,6.388,13.129,4.707c0.48-0.181,0.935-0.494,1.328-0.831c1.269-1.086,1.198-2.438-0.152-3.692
		c0.18-0.159,0.36-0.318,0.54-0.478c0.252,0.169,0.504,0.337,0.757,0.506c0.527,1.252,0.829,2.486-0.189,3.666
		c-0.084,0.099-0.038,0.31-0.052,0.469c-0.08,0.079-0.16,0.159-0.24,0.239c-0.334-0.013-0.61,0.105-0.904,0.279
		c-2.651,1.556-5.514,1.886-8.431,1.097c-2.689-0.729-5.031-2.043-6.075-4.895c-0.109-0.298-0.257-0.613-0.664-0.623l0,0
		c-0.001-2.417-0.017-4.834,0.005-7.25c0.006-0.652-0.105-1.393,0.679-1.765C89.206,22.813,89.23,24.028,89.255,25.244z"/>
	<path fill-rule="evenodd" clip-rule="evenodd" fill="#ADB1B4" d="M103.972,27.23c-0.763-0.977-1.558-1.077-2.433-0.125
		c-0.147,0.16-0.416,0.208-0.628,0.309c-0.025-0.075-0.036-0.206-0.079-0.218c-1.469-0.4-2.948-0.322-4.425-0.048
		c-0.061,0.012-0.086,0.209-0.128,0.32c-1.036-0.483-1.844-1.178-2.155-2.331c-0.176-0.654,0.142-0.775,0.694-0.643
		c0.019,0.079,0.01,0.188,0.06,0.23c0.881,0.767,4.61,0.77,5.499,0.003c0.049-0.042,0.042-0.151,0.061-0.229
		c1.378,0.006,2.757,0.012,4.135,0.018C104.431,25.435,105.003,26.51,103.972,27.23z"/>
	<path fill-rule="evenodd" clip-rule="evenodd" fill="#ADB1B4" d="M95.794,20.893c-0.555,0.05-1.313,0.306-1.594-0.147
		c-0.304-0.491,0.159-1.151,0.427-1.685c0.619-1.234,1.895-1.929,3.171-1.774c1.544,0.188,2.375,0.884,2.759,2.312
		c0.331,1.229,0.214,1.366-1.096,1.295C98.591,19.804,96.665,19.804,95.794,20.893z"/>
	<path fill-rule="evenodd" clip-rule="evenodd" fill="#E7E8E9" d="M105.345,20.377c1.015,0.498,0.983,1.572,1.069,2.398
		c0.186,1.787,0.314,3.61-0.139,5.398c-0.467-0.046-0.678,0.481-1.117,0.497c-0.037-0.075-0.073-0.151-0.11-0.228
		c0.917-1.357,0.766-2.895,0.735-4.408c-0.008-0.375,0.145-0.847-0.432-0.981C105.35,22.161,105.347,21.27,105.345,20.377z"/>
	<path fill-rule="evenodd" clip-rule="evenodd" fill="#C4CCCE" d="M105.352,23.054c0.576,0.135,0.424,0.606,0.432,0.981
		c0.03,1.514,0.181,3.051-0.735,4.408c-0.462-0.313-0.759-0.771-1.076-1.213c1.031-0.721,0.459-1.796,0.6-2.714
		C105.724,24.504,105.13,23.562,105.352,23.054z"/>
	<path fill-rule="evenodd" clip-rule="evenodd" fill="#BEC1C4" d="M96.279,27.469c0.042-0.111,0.067-0.309,0.128-0.32
		c1.477-0.274,2.956-0.353,4.425,0.048c0.043,0.012,0.053,0.143,0.079,0.218C99.375,28.14,97.833,28.278,96.279,27.469z"/>
	<path fill-rule="evenodd" clip-rule="evenodd" fill="#BEC1C4" d="M100.437,24.499c-0.019,0.078-0.011,0.188-0.061,0.229
		c-0.889,0.767-4.618,0.764-5.499-0.003c-0.05-0.043-0.041-0.151-0.06-0.23C96.691,24.396,98.564,24.39,100.437,24.499z"/>
	<path fill-rule="evenodd" clip-rule="evenodd" fill="#BEC1C4" d="M95.794,20.893c0.871-1.089,2.797-1.089,3.667,0
		C98.239,20.994,97.017,20.994,95.794,20.893z"/>
	<path fill-rule="evenodd" clip-rule="evenodd" fill="#F4F4F5" d="M105.158,28.671c0.439-0.016,0.65-0.543,1.117-0.497
		c-0.056,0.851-1.302,1.176-0.971,2.198c-0.084,0.002-0.168,0.004-0.252,0.006c-0.252-0.169-0.505-0.337-0.757-0.506
		C104.505,29.416,105.05,29.201,105.158,28.671z"/>
	<path fill-rule="evenodd" clip-rule="evenodd" fill="#ADB1B4" d="M139.429,28.646c1.17,0.988,2.209,2.145,3.709,2.69
		c2.976,1.083,5.872,0.913,8.71-0.471c0.079,0.081,0.159,0.161,0.238,0.241c0.001,0.649,0.003,1.299,0.004,1.948
		c-0.026,0.462-0.271,0.705-0.733,0.729c-0.842,0.25-1.785,0.245-2.438,0.969c-0.162,0-0.324,0.001-0.485,0.001
		c-1.342-0.505-2.794-0.056-4.146-0.479c-0.241-0.002-0.483-0.004-0.726-0.006c-1.023-1.037-2.189-1.894-3.411-2.679v-0.001
		c0.048-0.47-0.199-0.846-0.38-1.249C139.532,29.804,139.133,29.292,139.429,28.646z"/>
	<path fill-rule="evenodd" clip-rule="evenodd" fill="#AFB4B6" d="M152.826,27.196c-0.895-1.476-1.769-0.383-2.647,0.021
		c-1.802-0.003-3.603-0.007-5.404-0.01c-0.86-0.6-1.8-1.142-1.717-2.412c0.006-0.093,0.012-0.185,0.018-0.277
		c0.062-0.027,0.124-0.034,0.19-0.02c1.15,0.52,2.357,0.926,3.615,0.732c2.048-0.314,4.068-0.805,6.15-0.875
		c0.169,0.004,0.337,0.008,0.506,0.011C153.379,25.329,154.058,26.502,152.826,27.196z"/>
	<path fill-rule="evenodd" clip-rule="evenodd" fill="#BEC1C4" d="M152.086,31.106c-0.079-0.08-0.159-0.16-0.238-0.241
		c0.319-0.231,0.639-0.463,0.957-0.694c0.062,0.416,0.328,0.73,0.511,1.09c0.447,0.881,0.374,1.727-0.365,2.434
		c-3.338,3.192-10.422,2.795-13.596-1.627c-1.282-1.787-1.521-3.947-1.623-6.097c-0.01-0.215,0.106-0.384,0.3-0.49
		c0.22,0.576,0.438,1.153,0.656,1.729c-0.031,1.633,0.241,3.164,1.463,4.378v0.001c0.695,1.456,1.925,2.23,3.411,2.679
		c0.242,0.002,0.484,0.004,0.726,0.006c1.284,1.006,2.701,0.858,4.146,0.479c0.161,0,0.323-0.001,0.485-0.001
		c0.907-0.085,1.846-0.092,2.438-0.969c0.463-0.023,0.707-0.267,0.733-0.729C153.105,32.517,153.104,31.966,152.086,31.106z"/>
	<path fill-rule="evenodd" clip-rule="evenodd" fill="#ADB1B4" d="M143.092,20.872c0.132-2.673,2.257-4.241,4.599-3.392
		c1.364,0.496,2.011,1.64,1.914,3.389c-0.362-0.006-0.7-0.025-1.047-0.221c-1.164-0.661-2.429-0.69-3.607-0.154
		C144.324,20.779,143.74,20.884,143.092,20.872z"/>
	<path fill-rule="evenodd" clip-rule="evenodd" fill="#AFBDC0" d="M153.031,24.356c-2.082,0.07-4.103,0.561-6.15,0.875
		c-1.258,0.193-2.465-0.213-3.615-0.732c0.514-0.358,1.099-0.19,1.648-0.19C147.62,24.308,150.325,24.338,153.031,24.356z"/>
	<path fill-rule="evenodd" clip-rule="evenodd" fill="#AFBDC0" d="M143.092,20.872c0.648,0.013,1.232-0.092,1.858-0.377
		c1.179-0.537,2.443-0.507,3.607,0.154c0.347,0.196,0.685,0.215,1.047,0.221c-0.995,0.474-2.05,0.202-3.07,0.2
		C145.389,21.068,144.215,21.33,143.092,20.872z"/>
	<path fill-rule="evenodd" clip-rule="evenodd" fill="#BEC1C4" d="M144.774,27.208c1.802,0.003,3.603,0.007,5.404,0.01
		C148.375,28.286,146.573,28.356,144.774,27.208z"/>
	<path fill-rule="evenodd" clip-rule="evenodd" fill="#AFBDC0" d="M152.826,27.196c1.231-0.694,0.553-1.867,0.711-2.829
		c0.249-0.03,0.498-0.061,0.746-0.091c0.011,1.357,0.211,2.752-0.763,3.919C153.096,27.996,153.024,27.553,152.826,27.196z"/>
	<path fill-rule="evenodd" clip-rule="evenodd" fill="#B4B7BA" d="M140.15,31.588c-1.222-1.214-1.494-2.745-1.463-4.378
		c0.366,0.417,0.634,0.886,0.741,1.436c-0.296,0.646,0.104,1.158,0.342,1.693C139.951,30.742,140.198,31.118,140.15,31.588z"/>
	<path fill-rule="evenodd" clip-rule="evenodd" fill="#AFBDC0" d="M143.075,24.519c-0.006,0.093-0.012,0.185-0.018,0.277
		C142.917,24.694,142.884,24.6,143.075,24.519z"/>
	<path fill-rule="evenodd" clip-rule="evenodd" fill="#ADB1B4" d="M240.049,27.94c1.671,2.561,4.123,3.778,7.087,4.084
		c1.776,0.183,3.43-0.389,5.082-0.928c0.651-0.02,1.111,0.241,1.223,0.916c0.135,0.818-0.379,1.3-1.002,1.644
		c-3.636,2.005-8.49,1.418-11.181-2.025C240.457,30.606,239.58,29.452,240.049,27.94z"/>
	<path fill-rule="evenodd" clip-rule="evenodd" fill="#DFE0E2" d="M255.251,21.095c0.428,0.107,0.521,0.481,0.625,0.823
		c0.118,0.387,0.29,0.701,0.751,0.595c0.448-0.104,0.479-0.493,0.479-0.87c0.003-1.053-0.008-2.105,0.009-3.158
		c0.009-0.574,0.031-1.167,0.785-1.302c0.215,0.568,0.142,1.143,0.048,1.719c-0.331,0.127-0.347,0.406-0.347,0.701
		c0.002,4.42-0.033,8.841,0.033,13.26c0.012,0.832,0.008,1.818,0.868,2.408c1.61,1.104,4.082,0.316,4.779-1.503
		c0.044-0.115,0.253-0.167,0.385-0.248c0.009,0.413,0.018,0.826,0.026,1.239c-0.004,0.24-0.008,0.48-0.012,0.72
		c-1.229,0.759-2.588,0.803-3.976,0.744c-1.755-0.074-2.564-0.875-2.592-2.662c-0.019-1.217-0.002-2.435-0.004-3.652
		c-0.001-2.166-0.083-2.216-2.008-1.269c-0.069,0.034-0.158,0.027-0.239,0.04c-0.145-0.171-0.29-0.342-0.436-0.512
		c1.121-1.113,1.212-2.439,0.8-3.869C255.235,23.231,255.243,22.163,255.251,21.095z"/>
	<path fill-rule="evenodd" clip-rule="evenodd" fill="#F0F0F1" d="M254.863,28.681c0.081-0.013,0.17-0.006,0.239-0.04
		c1.925-0.947,2.007-0.897,2.008,1.269c0.002,1.218-0.015,2.436,0.004,3.652c0.027,1.787,0.837,2.588,2.592,2.662
		c1.388,0.059,2.746,0.015,3.976-0.744c0.003,0.311-0.152,0.513-0.397,0.701c-1.976,1.529-5.76,0.521-6.675-1.8
		c-0.335-0.847-0.777-0.667-1.264-0.17c-3.06,3.122-9.008,3.56-12.514,1.565c-0.337-0.191-0.802-0.251-0.83-0.774
		c0.33,0.077,0.659,0.155,0.988,0.232c3.447,1.503,6.858,1.664,10.234-0.232c0.502-0.282,0.958-0.594,1.355-1.009
		c1.119-1.167,1.139-2.122,0.058-3.289c-0.246-0.266-0.474-0.55-0.709-0.826C254.24,29.479,254.552,29.08,254.863,28.681z"/>
	<path fill-rule="evenodd" clip-rule="evenodd" fill="#AFB4B6" d="M253.909,24.357c0.25,0.003,0.5,0.007,0.751,0.01
		c0.005,0.472-0.007,0.944,0.018,1.415c0.039,0.762-0.185,1.319-1.027,1.445c-0.869-1.22-1.756-0.636-2.643-0.025
		c-1.775-0.001-3.551-0.002-5.326-0.003c-0.974-0.632-1.811-1.352-1.701-2.673c0.774-0.201,1.313,0.477,2.068,0.517
		c2.621,0.137,5.149-0.751,7.761-0.62C253.842,24.425,253.876,24.38,253.909,24.357z"/>
	<path fill-rule="evenodd" clip-rule="evenodd" fill="#BEC1C4" d="M240.049,27.94c-0.469,1.512,0.408,2.666,1.209,3.69
		c2.69,3.443,7.545,4.03,11.181,2.025c0.623-0.344,1.137-0.825,1.002-1.644c-0.111-0.675-0.571-0.936-1.223-0.916
		c0.397-0.255,0.794-0.511,1.19-0.766c0.24,0.559,0.909,0.8,1.021,1.475c0.195,1.177-0.518,1.879-1.35,2.373
		c-4.357,2.582-10.917,1.758-13.579-3.841c-0.613-1.29-0.492-2.768-0.373-4.188C239.636,26.644,239.715,27.357,240.049,27.94z"/>
	<path fill-rule="evenodd" clip-rule="evenodd" fill="#ADB1B4" d="M250.314,20.67c0.012,0.069,0.002,0.136-0.027,0.2
		c-0.547,0.061-1.024-0.135-1.503-0.373c-0.797-0.395-1.637-0.5-2.438-0.06c-0.746,0.41-1.526,0.478-2.342,0.433
		c0.064-1.237,0.537-2.286,1.555-3.004c1.994-1.408,4.323-0.38,4.729,2.055C250.297,20.17,250.306,20.42,250.314,20.67z"/>
	<path fill-rule="evenodd" clip-rule="evenodd" fill="#AFBDC0" d="M253.909,24.357c-0.033,0.022-0.067,0.067-0.1,0.065
		c-2.611-0.131-5.14,0.757-7.761,0.62c-0.756-0.04-1.294-0.718-2.068-0.517c0.127-0.188,0.319-0.225,0.526-0.224
		C247.641,24.32,250.775,24.339,253.909,24.357z"/>
	<path fill-rule="evenodd" clip-rule="evenodd" fill="#AFBDC0" d="M244.004,20.87c0.815,0.044,1.596-0.023,2.342-0.433
		c0.802-0.44,1.642-0.334,2.438,0.06c0.479,0.237,0.956,0.433,1.503,0.373C248.192,21.24,246.099,21.24,244.004,20.87z"/>
	<path fill-rule="evenodd" clip-rule="evenodd" fill="#AFBDC0" d="M253.65,27.228c0.843-0.126,1.066-0.684,1.027-1.445
		c-0.024-0.471-0.013-0.943-0.018-1.415c0.188-0.022,0.378-0.045,0.567-0.067c0.412,1.43,0.321,2.756-0.8,3.869
		C254.041,27.96,253.772,27.655,253.65,27.228z"/>
	<path fill-rule="evenodd" clip-rule="evenodd" fill="#BEC1C4" d="M245.682,27.199c1.775,0.001,3.551,0.002,5.326,0.003
		C249.318,28.271,247.214,28.27,245.682,27.199z"/>
	<path fill-rule="evenodd" clip-rule="evenodd" fill="#AFBDC0" d="M250.314,20.67c-0.009-0.25-0.018-0.5-0.026-0.75
		C250.572,20.161,250.544,20.412,250.314,20.67z"/>
	<path fill-rule="evenodd" clip-rule="evenodd" fill="#ADB1B4" d="M33.944,28.346c2.64,3.521,6.125,4.389,10.23,3.212
		c1.882-0.539,3.171-1.872,4.281-3.407c0.257,0.129,0.313,0.338,0.258,0.605c-0.393,1.882-1.303,3.433-2.891,4.556
		c-2.634,1.862-5.476,1.864-8.225,0.521C35.429,32.773,33.828,31.062,33.944,28.346z"/>
	<path fill-rule="evenodd" clip-rule="evenodd" fill="#BEC1C4" d="M33.944,28.346c-0.116,2.716,1.484,4.428,3.654,5.487
		c2.749,1.343,5.591,1.341,8.225-0.521c1.587-1.123,2.498-2.674,2.891-4.556c0.056-0.268,0-0.477-0.258-0.605
		c0.473-1.055,0.936-2.113,1.186-3.25c0.778,1.2,0.266,2.463,0.057,3.648c-0.854,4.839-4.025,7.114-8.498,7.105
		c-4.224-0.009-8.053-2.568-8.481-8.012c-0.034-0.431-0.767-1.083,0.188-1.42C33.252,26.931,33.598,27.639,33.944,28.346z"/>
	<path fill-rule="evenodd" clip-rule="evenodd" fill="#AFB4B6" d="M37.614,23.813c-0.201-1.465-0.052-2.898,0.462-4.28
		c0.514-1.38,1.545-2.213,3.002-2.245c1.407-0.031,2.437,0.753,3.026,2.034c0.62,1.347,0.742,2.77,0.523,4.228
		c-0.196-0.303-0.385-0.61-0.59-0.905c-1.658-2.39-4.242-2.325-5.723,0.125C38.101,23.125,38.202,23.707,37.614,23.813z"/>
	<path fill-rule="evenodd" clip-rule="evenodd" fill="#DFE0E2" d="M43.713,26.59c-0.07-1.048-0.12-2.104-0.689-3.033
		c-0.425-0.692-0.828-1.4-1.866-1.242c-1.013,0.155-1.537,0.841-1.891,1.664c-0.385,0.893-0.528,1.858-0.534,2.838
		c-1.013-0.764-0.969-1.92-1.119-3.004c0.587-0.105,0.486-0.688,0.701-1.043c1.481-2.45,4.065-2.515,5.723-0.125
		c0.206,0.295,0.394,0.603,0.59,0.905C44.355,24.572,44.724,25.789,43.713,26.59z"/>
	<path fill-rule="evenodd" clip-rule="evenodd" fill="#ADB1B4" d="M174.258,27.94c2.434,3.469,5.816,4.558,9.866,3.88
		c0.786-0.132,1.536-0.478,2.303-0.724c0.805-0.063,1.188,0.453,1.39,1.103c0.22,0.71-0.382,1.032-0.841,1.303
		c-4.012,2.362-9.819,1.788-12.531-3.411C174.137,29.501,173.858,28.694,174.258,27.94z"/>
	<path fill-rule="evenodd" clip-rule="evenodd" fill="#AFB4B6" d="M187.858,27.228c-0.868-1.227-1.756-0.629-2.644-0.026
		c-1.774-0.001-3.549-0.002-5.324-0.002c-0.974-0.632-1.811-1.352-1.701-2.673c1.678,0.506,3.381,1.135,5.123,0.467
		c1.399-0.537,2.813-0.455,4.242-0.479c0.188-0.004,0.376-0.102,0.563-0.156c0.25,0.003,0.501,0.007,0.751,0.01
		c0.005,0.472-0.006,0.944,0.018,1.415C188.927,26.545,188.701,27.102,187.858,27.228z"/>
	<path fill-rule="evenodd" clip-rule="evenodd" fill="#D3D6D7" d="M188.139,29.879c0.013,0.304,0.187,0.517,0.379,0.735
		c1.295,1.472,1.082,2.83-0.584,3.889c-4.854,3.084-11.035,2.032-14.231-2.945c-1.356-2.112-1.248-4.612-1.056-7.041
		c0.008-0.095,0.244-0.17,0.374-0.255c0.105,0.629,0.212,1.259,0.317,1.889c-0.027,1.829,0.063,3.643,1.108,5.232
		c1.749,2.659,4.292,3.942,7.419,4.094c2.03,0.098,3.946-0.391,5.583-1.618c1.623-1.218,1.559-2.057-0.106-3.282
		C187.607,30.344,187.873,30.111,188.139,29.879z"/>
	<path fill-rule="evenodd" clip-rule="evenodd" fill="#ADB1B4" d="M178.213,20.87c0.292-2.713,2.109-4.097,4.5-3.427
		c1.27,0.355,1.966,1.342,2.051,2.907c0.002,0.107,0.004,0.214,0.006,0.32c-0.076,0.075-0.153,0.15-0.23,0.225
		c-0.502,0.016-0.923-0.223-1.356-0.425c-0.88-0.409-1.791-0.473-2.652-0.019C179.785,20.844,179.018,20.908,178.213,20.87z"/>
	<path fill-rule="evenodd" clip-rule="evenodd" fill="#BEC1C4" d="M187.342,30.576c1.665,1.226,1.729,2.064,0.106,3.282
		c-1.637,1.228-3.553,1.716-5.583,1.618c-3.127-0.151-5.67-1.435-7.419-4.094c-1.046-1.59-1.136-3.403-1.108-5.232
		c0.507,0.494,0.586,1.207,0.92,1.79c-0.399,0.754-0.121,1.561,0.187,2.15c2.712,5.199,8.52,5.773,12.531,3.411
		c0.459-0.271,1.061-0.593,0.841-1.303c-0.201-0.649-0.585-1.166-1.39-1.103C186.669,30.813,186.993,30.672,187.342,30.576z"/>
	<path fill-rule="evenodd" clip-rule="evenodd" fill="#DFE0E2" d="M189.468,21.342c1.062,1.271,1.475,4.957,0.763,6.362
		c-0.261,0.516-0.665,0.775-1.153,0.979c-0.146-0.172-0.291-0.345-0.437-0.517c1.229-1.09,1.14-2.452,0.797-3.866
		C189.447,23.314,189.457,22.328,189.468,21.342z"/>
	<path fill-rule="evenodd" clip-rule="evenodd" fill="#AFBDC0" d="M188.118,24.357c-0.188,0.055-0.375,0.152-0.563,0.156
		c-1.429,0.024-2.843-0.058-4.242,0.479c-1.742,0.668-3.445,0.039-5.123-0.467c0.127-0.188,0.32-0.225,0.526-0.224
		C181.85,24.32,184.984,24.339,188.118,24.357z"/>
	<path fill-rule="evenodd" clip-rule="evenodd" fill="#AFBDC0" d="M178.213,20.87c0.805,0.038,1.572-0.026,2.317-0.419
		c0.861-0.454,1.772-0.39,2.652,0.019c0.434,0.202,0.854,0.44,1.356,0.425C182.429,21.209,180.32,21.251,178.213,20.87z"/>
	<path fill-rule="evenodd" clip-rule="evenodd" fill="#BEC1C4" d="M179.891,27.199c1.775,0,3.55,0.001,5.324,0.002
		C183.955,28.281,181.431,28.28,179.891,27.199z"/>
	<path fill-rule="evenodd" clip-rule="evenodd" fill="#AFBDC0" d="M189.438,24.3c0.343,1.414,0.433,2.776-0.797,3.866
		c-0.389-0.207-0.66-0.51-0.782-0.938c0.843-0.126,1.068-0.683,1.028-1.445c-0.023-0.471-0.013-0.943-0.018-1.415
		C189.059,24.345,189.248,24.322,189.438,24.3z"/>
	<path fill-rule="evenodd" clip-rule="evenodd" fill="#AFBDC0" d="M184.77,20.67c-0.002-0.106-0.004-0.213-0.006-0.32
		C184.912,20.454,184.909,20.561,184.77,20.67z"/>
	<path fill-rule="evenodd" clip-rule="evenodd" fill="#ADB1B4" d="M201.574,28.136c1.88,2.692,4.472,3.998,7.743,3.915
		c2.795-0.071,5.041-1.278,6.809-3.417c0.462,1.092-0.401,3.188-1.606,4.161c-2.307,1.862-4.875,2.291-7.736,1.721
		C204.639,34.089,200.957,30.566,201.574,28.136z"/>
	<path fill-rule="evenodd" clip-rule="evenodd" fill="#B4B7BA" d="M205.438,24.302c-0.501-2.06-0.249-4.052,0.911-5.796
		c1.231-1.851,4.343-1.628,5.487,0.293c0.933,1.565,1.134,3.256,0.786,5.026c-0.383-0.153-0.439-0.549-0.634-0.844
		c-1.606-2.439-3.906-2.548-5.569-0.275C206.05,23.213,206.119,23.988,205.438,24.302z"/>
	<path fill-rule="evenodd" clip-rule="evenodd" fill="#BEC1C4" d="M201.574,28.136c-0.617,2.431,3.064,5.953,5.209,6.38
		c2.861,0.57,5.43,0.142,7.736-1.721c1.205-0.973,2.068-3.069,1.606-4.161c0.469-0.921,0.816-1.886,1.06-2.89
		c0.38,1.046,0.215,2.104,0.085,3.165c-0.163,1.326-1.093,2.367-1.334,3.662c-0.006,0.076-0.01,0.153-0.015,0.23
		c-0.185,0.072-0.417,0.097-0.547,0.225c-1.374,1.358-3.033,2.142-4.933,2.376c-3.178,0.392-6.354-0.463-8.389-3.401
		c-1.461-2.107-1.596-4.426-1.4-6.841C200.961,26.152,201.268,27.144,201.574,28.136z"/>
	<path fill-rule="evenodd" clip-rule="evenodd" fill="#E7E8E9" d="M215.922,32.802c0.005-0.077,0.009-0.154,0.015-0.23
		c0.505-0.047,0.726-0.393,0.964-0.799c1.285-2.193,1.346-4.6,1.168-7.014c-0.04-0.545,0.118-1.326-0.591-1.711
		c-0.008-0.24-0.017-0.48-0.025-0.72c0.023-0.025,0.07-0.06,0.064-0.075c-0.02-0.058-0.057-0.108-0.088-0.162
		c0.004-0.247,0.006-0.495,0.01-0.742c0.585,0.037,0.611,0.529,0.794,0.924c0.165,0.355,0.076,1.059,0.724,0.901
		c0.542-0.133,0.373-0.729,0.381-1.152c0.016-0.885-0.002-1.771,0.009-2.657c0.005-0.382-0.117-0.851,0.485-0.93
		c-0.002,4.223-0.003,8.447-0.005,12.67c-0.89-0.389-0.334-1.177-0.479-1.77c-0.065-0.267-0.002-0.593-0.401-0.613
		c-0.276-0.013-0.497,0.171-0.52,0.409c-0.118,1.265-1.081,2.206-1.279,3.434c-0.428,0.298-0.565,0.955-1.215,0.978
		C215.929,33.295,215.926,33.048,215.922,32.802z"/>
	<path fill-rule="evenodd" clip-rule="evenodd" fill="#D3D6D7" d="M215.922,32.802c0.004,0.246,0.007,0.493,0.011,0.74
		c-0.005,0.155-0.01,0.311-0.015,0.466c-0.079,0.003-0.157,0.007-0.235,0.012c-0.234,0.048-0.534,0.019-0.693,0.154
		c-1.847,1.582-4.01,1.852-6.357,1.841c-3.637-0.017-6.148-1.625-7.763-4.804c-0.176-0.346-0.247-0.803-0.765-0.849l-0.007,0.005
		c-0.002-2.231-0.014-4.463,0.003-6.693c0.003-0.406-0.199-0.936,0.431-1.119c0.04,0.869,0.081,1.738,0.122,2.606
		c-0.195,2.414-0.061,4.732,1.4,6.84c2.034,2.938,5.211,3.793,8.389,3.401c1.899-0.234,3.559-1.018,4.933-2.376
		C215.505,32.898,215.737,32.874,215.922,32.802z"/>
	<path fill-rule="evenodd" clip-rule="evenodd" fill="#E7E8E9" d="M211.576,26.774c-0.098-1.167-0.141-2.364-0.981-3.292
		c-0.47-0.519-0.895-1.206-1.783-1.005c-0.938,0.212-1.388,0.863-1.663,1.742c-0.313,0.997-0.191,2.01-0.252,3.016
		c-0.783-0.536-1.317-1.229-1.396-2.211c0.025-0.029,0.077-0.068,0.07-0.088c-0.021-0.066-0.063-0.126-0.097-0.188
		c-0.012-0.149-0.023-0.299-0.036-0.448c0.681-0.313,0.611-1.088,0.981-1.595c1.663-2.273,3.963-2.164,5.569,0.275
		c0.194,0.295,0.251,0.69,0.634,0.844C212.411,24.857,212.61,26.035,211.576,26.774z"/>
	<path fill-rule="evenodd" clip-rule="evenodd" fill="#D3D6D7" d="M217.478,23.048c0.709,0.385,0.551,1.166,0.591,1.711
		c0.178,2.414,0.117,4.82-1.168,7.014c-0.238,0.406-0.459,0.752-0.964,0.799c0.241-1.295,1.171-2.336,1.334-3.662
		c0.13-1.062,0.295-2.119-0.085-3.165C217.283,24.846,217.38,23.946,217.478,23.048z"/>
	<path fill-rule="evenodd" clip-rule="evenodd" fill="#B4B7BA" d="M205.475,24.749c0.034,0.062,0.076,0.121,0.097,0.188
		c0.007,0.02-0.045,0.059-0.07,0.088C205.492,24.933,205.483,24.841,205.475,24.749z"/>
	<path fill-rule="evenodd" clip-rule="evenodd" fill="#D3D6D7" d="M217.429,22.091c0.031,0.054,0.068,0.104,0.088,0.162
		c0.006,0.016-0.041,0.05-0.064,0.075C217.411,22.253,217.403,22.174,217.429,22.091z"/>
	<path fill-rule="evenodd" clip-rule="evenodd" fill="#E7E8E9" d="M71.433,35.489c-0.18-0.621-0.254-1.249-0.252-1.902
		c0.015-4.842,0.006-9.685,0.01-14.528c0-0.706-0.075-1.455,0.734-1.845c0.008,4.775,0.016,9.55,0.023,14.326
		c-0.474,0.882-0.366,1.847-0.191,2.737c0.17,0.868,0.741,1.529,1.804,1.462c0.526-0.032,1.055,0.005,1.583-0.007
		c1.402-0.033,2.126-0.707,2.131-2.083c0.017-4.912,0.009-9.825,0.002-14.738c0-0.378,0.144-0.856-0.453-0.971
		c-0.002-0.405-0.003-0.81-0.005-1.215c0.591-0.069,0.635,0.742,1.186,0.738c0,0.242,0.001,0.484,0.001,0.726
		c-0.307,0.246-0.308,0.489,0.005,0.731c0,4.874,0,9.747,0,14.621c-0.288,0.177-0.236,0.464-0.238,0.734
		c-0.024,1.128-0.324,2.015-1.709,1.949c-0.412,0.054-0.878-0.166-1.221,0.24c-0.325,0-0.65,0-0.975,0
		c-0.682-0.378-1.463-0.317-2.19-0.49C71.598,35.813,71.515,35.65,71.433,35.489z"/>
	<path fill-rule="evenodd" clip-rule="evenodd" fill="#F0F0F1" d="M88.496,30.61c0.406,0.01,0.554,0.325,0.664,0.623
		c1.044,2.852,3.386,4.166,6.075,4.895c2.917,0.789,5.78,0.459,8.431-1.097c0.294-0.174,0.57-0.292,0.904-0.279
		c-1.186,1.459-2.937,1.931-4.607,2.129c-2.565,0.303-5.182,0.249-7.513-1.233C90.535,34.431,88.901,33.007,88.496,30.61z"/>
	<path fill-rule="evenodd" clip-rule="evenodd" fill="#F0F0F1" d="M51.691,32.807c-0.206,3.376,1.53,3.788,4.866,3.24
		c0.992-0.163,1.851-0.261,2.815,0.073c1.989,0.69,3.989,0.325,5.97-0.144c-0.613,0.951-1.653,0.89-2.557,0.944
		c-1.321,0.079-2.642,0.105-3.96-0.36c-1.205-0.425-2.483,0.05-3.723,0.16c-2.861,0.257-4.203-0.994-3.892-3.912
		C51.37,32.809,51.53,32.808,51.691,32.807z"/>
	<path fill-rule="evenodd" clip-rule="evenodd" fill="#F0F0F1" d="M23.914,29.155c-0.498,1.814-0.22,3.653-0.137,5.48
		c0.019,0.415,0.309,0.846,0.87,0.854c0.005,0.077,0.008,0.154,0.008,0.232c0.08,0.166,0.159,0.331,0.238,0.497l-0.003,0.004
		c-1.384-0.138-1.589-1.219-1.68-2.262c-0.098-1.122-0.006-2.259-0.032-3.389c-0.009-0.375,0.196-0.856-0.269-1.093
		c-0.51-0.26-0.672,0.271-0.972,0.496c-0.121,0.09-0.296,0.106-0.447,0.156c-0.083-0.082-0.166-0.165-0.248-0.248
		c0.083-0.242,0.165-0.484,0.248-0.728c0.462-0.019,0.621-0.398,0.703-0.725c0.302-1.194,0.829-1.435,1.721-0.495
		C23.914,28.344,23.914,28.749,23.914,29.155z"/>
	<path fill-rule="evenodd" clip-rule="evenodd" fill="#F0F0F1" d="M48.773,33.296c0.73-1.591,1.607-3.124,1.924-4.881
		c0.057-0.315,0.154-0.692,0.585-0.61c0.393,0.074,0.41,0.446,0.411,0.775c0.002,1.247,0,2.495-0.001,3.743
		c-0.161-0.001-0.322-0.001-0.482-0.002c0-0.162,0-0.324,0-0.486c-0.078-0.342,0.211-0.921-0.437-0.909
		c-0.529,0.01-0.533,0.498-0.538,0.908C49.514,32.089,49.72,33.269,48.773,33.296z"/>
	<path fill-rule="evenodd" clip-rule="evenodd" fill="#DFE0E2" d="M76.27,10.839c0.238-0.26,0.475-0.52,0.713-0.781
		c0.689,0.614,0.571,1.672,1.261,2.286c0.001,0.32,0.003,0.641,0.004,0.961c-0.662,0.162-0.556,0.775-0.724,1.228h0
		c-0.235,0.083-0.47,0.165-0.705,0.248c-0.008-0.327-0.017-0.653-0.024-0.98C76.956,12.754,76.932,11.74,76.27,10.839z"/>
	<path fill-rule="evenodd" clip-rule="evenodd" fill="#E7E8E9" d="M21.242,29.885c0.083,0.083,0.165,0.166,0.248,0.248
		c-0.083,0.242-0.166,0.484-0.249,0.727c-0.337,0.338-0.389,0.789-0.487,1.222c-0.083,0.405-0.165,0.81-0.248,1.215
		c-0.594,0.313-0.561,0.938-0.729,1.465c-0.244,0.324-0.489,0.649-0.733,0.974c-0.411,0.077-0.822,0.153-1.234,0.23
		c1.557-1.357,2.204-3.195,2.745-5.104C20.66,30.5,21.008,30.209,21.242,29.885z"/>
	<path fill-rule="evenodd" clip-rule="evenodd" fill="#F0F0F1" d="M43.656,36.466c1.493-0.67,2.817-1.677,4.383-2.201
		c-0.978,1.382-2.542,1.801-3.99,2.4C43.961,36.702,43.789,36.537,43.656,36.466z"/>
	<path fill-rule="evenodd" clip-rule="evenodd" fill="#F0F0F1" d="M105.051,30.378c0.084-0.002,0.168-0.004,0.252-0.006
		c1.199,1.769,1.062,2.916-0.494,4.141c0.015-0.159-0.032-0.37,0.052-0.469C105.88,32.864,105.579,31.63,105.051,30.378z"/>
	<path fill-rule="evenodd" clip-rule="evenodd" fill="#F0F0F1" d="M17.812,35.965c0.412-0.077,0.823-0.153,1.234-0.23
		c-0.566,1.014-2.372,1.297-3.175,0.499c0.266-0.025,0.562,0.038,0.736-0.254C17.009,35.975,17.411,35.97,17.812,35.965z"/>
	<path fill-rule="evenodd" clip-rule="evenodd" fill="#F0F0F1" d="M76.82,14.78c0.235-0.083,0.47-0.165,0.705-0.248
		c-0.363,1.063,0.098,1.99,0.481,2.93c-0.551,0.004-0.595-0.807-1.186-0.738C76.82,16.077,76.82,15.428,76.82,14.78z"/>
	<path fill-rule="evenodd" clip-rule="evenodd" fill="#F0F0F1" d="M39.752,36.476c1.059,0,2.117,0,3.176,0
		C42.248,37.168,40.434,37.168,39.752,36.476z"/>
	<path fill-rule="evenodd" clip-rule="evenodd" fill="#F0F0F1" d="M78.244,12.344c-0.69-0.613-0.572-1.672-1.261-2.286
		c-0.026-0.07-0.005-0.122,0.063-0.154C78.111,10.39,78.386,11.264,78.244,12.344z"/>
	<path fill-rule="evenodd" clip-rule="evenodd" fill="#F4F4F5" d="M69.244,31.348c0.142-0.063,0.302-0.103,0.422-0.193
		c0.257-0.194,0.207-0.822,0.708-0.633c0.463,0.175,0.299,0.684,0.328,1.069c-0.517-0.09-0.978,0.17-1.469,0.239
		C69.237,31.67,69.24,31.509,69.244,31.348z"/>
	<path fill-rule="evenodd" clip-rule="evenodd" fill="#F0F0F1" d="M71.68,35.974c0.728,0.173,1.508,0.112,2.19,0.49
		C72.995,36.947,72.273,36.75,71.68,35.974z"/>
	<path fill-rule="evenodd" clip-rule="evenodd" fill="#F0F0F1" d="M35.369,34.761c0.655,0.174,1.186,0.565,1.707,0.975
		C36.197,35.953,35.656,35.58,35.369,34.761z"/>
	<path fill-rule="evenodd" clip-rule="evenodd" fill="#F0F0F1" d="M33.663,33.056c0.588,0.386,1.074,0.873,1.461,1.461
		C34.198,34.469,33.711,33.981,33.663,33.056z"/>
	<path fill-rule="evenodd" clip-rule="evenodd" fill="#F4F4F5" d="M50.234,31.834c0.005-0.41,0.009-0.898,0.538-0.908
		c0.648-0.012,0.359,0.567,0.437,0.909C50.884,31.834,50.559,31.834,50.234,31.834z"/>
	<path fill-rule="evenodd" clip-rule="evenodd" fill="#F0F0F1" d="M19.779,34.761c0.167-0.526,0.134-1.151,0.729-1.465
		C20.703,34.002,20.384,34.452,19.779,34.761z"/>
	<path fill-rule="evenodd" clip-rule="evenodd" fill="#F0F0F1" d="M65.578,35.971c0.264-0.663,0.766-0.97,1.468-0.975
		C66.735,35.589,66.225,35.883,65.578,35.971z"/>
	<path fill-rule="evenodd" clip-rule="evenodd" fill="#F0F0F1" d="M77.524,14.533c0.168-0.452,0.062-1.066,0.724-1.228
		C78.256,13.861,78.343,14.463,77.524,14.533z"/>
	<path fill-rule="evenodd" clip-rule="evenodd" fill="#F0F0F1" d="M37.562,35.979c0.479-0.02,0.903,0.096,1.22,0.484
		C38.217,36.701,37.787,36.599,37.562,35.979z"/>
	<path fill-rule="evenodd" clip-rule="evenodd" fill="#F0F0F1" d="M74.845,36.464c0.342-0.406,0.809-0.187,1.221-0.24
		C75.791,36.975,75.334,36.801,74.845,36.464z"/>
	<path fill-rule="evenodd" clip-rule="evenodd" fill="#F0F0F1" d="M12.215,31.104c0.34,0.337,0.393,0.788,0.487,1.223
		C12.089,32.098,11.99,31.665,12.215,31.104z"/>
	<path fill-rule="evenodd" clip-rule="evenodd" fill="#F0F0F1" d="M20.755,32.081c0.098-0.433,0.15-0.884,0.487-1.222
		C21.471,31.423,21.373,31.855,20.755,32.081z"/>
	<path fill-rule="evenodd" clip-rule="evenodd" fill="#F0F0F1" d="M13.925,35.248c0.332,0.156,0.575,0.399,0.731,0.73
		C14.118,36.029,13.875,35.786,13.925,35.248z"/>
	<path fill-rule="evenodd" clip-rule="evenodd" fill="#F0F0F1" d="M78.013,18.919c-0.313-0.242-0.312-0.485-0.005-0.731
		C78.327,18.43,78.327,18.674,78.013,18.919z"/>
	<path fill-rule="evenodd" clip-rule="evenodd" fill="#F4F4F5" d="M51.209,32.321c0.161,0.001,0.321,0.001,0.482,0.002
		c0,0.161,0,0.322,0,0.484c-0.161,0-0.321,0.001-0.481,0.001C50.96,32.646,50.959,32.484,51.209,32.321z"/>
	<path fill-rule="evenodd" clip-rule="evenodd" fill="#F0F0F1" d="M77.775,34.274c0.002-0.271-0.05-0.558,0.238-0.734
		C78.412,33.939,78.287,34.17,77.775,34.274z"/>
	<path fill-rule="evenodd" clip-rule="evenodd" fill="#F0F0F1" d="M12.946,33.053c0.203,0.104,0.246,0.286,0.243,0.492
		C12.887,33.49,12.582,33.437,12.946,33.053z"/>
	<path fill-rule="evenodd" clip-rule="evenodd" fill="#F0F0F1" d="M32.932,32.078c0.2,0.103,0.242,0.285,0.246,0.487
		C32.869,32.518,32.564,32.467,32.932,32.078z"/>
	<path fill-rule="evenodd" clip-rule="evenodd" fill="#BEC1C4" d="M156.496,17.931c0.31,0.826,0.634,1.647,0.926,2.48
		c1.312,3.732,2.613,7.466,3.919,11.2c-0.058,0.551,0.139,1.031,0.397,1.502c0.629,1.148,1.71,1.529,2.995,1.042
		c0.984-0.374,1.475-1.376,1.251-2.557c0.989-2.848,2.063-5.67,2.937-8.554c0.521-1.719,0.809-3.507,1.657-5.119
		c0.933,0.338,0.571,1.102,0.406,1.628c-0.736,2.353-1.543,4.685-2.373,7.007c-0.277,0.774-0.521,1.53-0.419,2.36
		c-0.009,0.319-0.018,0.64-0.025,0.959c-0.955,0.441-0.852,1.461-1.208,2.227c-0.464,0.993-0.467,2.274-1.72,2.769
		c-2.291,0.903-3.953-0.006-4.623-2.405c-0.485-1.74-1.01-3.481-1.688-5.153c-1.096-2.699-1.877-5.501-2.845-8.24
		C155.931,18.644,155.746,18.089,156.496,17.931z"/>
	<path fill-rule="evenodd" clip-rule="evenodd" fill="#D3D6D7" d="M156.496,17.931c-0.75,0.159-0.565,0.713-0.412,1.146
		c0.968,2.739,1.749,5.541,2.845,8.24c0.678,1.672,1.202,3.413,1.688,5.153c0.67,2.399,2.332,3.309,4.623,2.405
		c1.253-0.494,1.256-1.775,1.72-2.769c0.356-0.766,0.253-1.785,1.208-2.227c0.008,0.169,0.015,0.339,0.022,0.508
		c-0.011,0.398-0.021,0.796-0.033,1.194c-0.81,0.405-0.718,1.278-0.97,1.953c-0.573,1.529-1.38,2.149-3.088,2.197
		c-2.218,0.062-2.993-0.295-3.583-1.923c-1.25-3.448-2.415-6.927-3.638-10.385c-0.538-1.521-1.158-3.013-1.535-4.589
		c-0.199-0.829-0.056-1.453,0.905-1.629C156.498,17.391,156.464,17.672,156.496,17.931z"/>
	<path fill-rule="evenodd" clip-rule="evenodd" fill="#ADB1B4" d="M165.984,31.598c0.224,1.181-0.267,2.183-1.251,2.557
		c-1.285,0.487-2.366,0.106-2.995-1.042c-0.259-0.471-0.455-0.951-0.397-1.502C162.889,31.606,164.437,31.602,165.984,31.598z"/>
	<path fill-rule="evenodd" clip-rule="evenodd" fill="#D3D6D7" d="M168.192,28.921c-0.102-0.83,0.142-1.586,0.419-2.36
		c0.83-2.322,1.637-4.654,2.373-7.007c0.165-0.526,0.526-1.291-0.406-1.628c0.02-0.343,0.084-0.673,0.292-0.958
		c1.392,0.391,1.049,1.492,0.834,2.366c-0.767,3.122-2.006,6.093-3.022,9.136C168.594,28.731,168.462,28.884,168.192,28.921z"/>
	<path fill-rule="evenodd" clip-rule="evenodd" fill="#DFE0E2" d="M168.192,28.921c0.27-0.037,0.401-0.189,0.489-0.452
		c1.017-3.043,2.256-6.015,3.022-9.136c0.215-0.875,0.558-1.976-0.834-2.366c-0.011-0.185-0.025-0.372,0.155-0.498
		c1.323,0.249,1.788,0.853,1.436,2.099c-0.812,2.877-1.733,5.721-2.772,8.525c-0.279,0.756-0.504,1.532-0.753,2.299
		c-0.136,0.417-0.186,0.897-0.746,0.996c-0.008-0.169-0.015-0.339-0.022-0.508C168.175,29.561,168.184,29.24,168.192,28.921z"/>
	<path fill-rule="evenodd" clip-rule="evenodd" fill="#E7E8E9" d="M162.403,21.103c0.466,0.116,0.582,0.508,0.632,0.892
		c0.101,0.763,0.524,1.092,1.267,1.073c-0.039,0.852-0.345,1.633-0.691,2.681C163.168,24.044,162.786,22.573,162.403,21.103z"/>
	<path fill-rule="evenodd" clip-rule="evenodd" fill="#E7E8E9" d="M161.931,19.396c0.502,0.293,0.705,0.681,0.389,1.231
		C162.036,20.266,161.96,19.838,161.931,19.396z"/>
	<path fill-rule="evenodd" clip-rule="evenodd" fill="#E7E8E9" d="M161.662,18.423c0.303,0.078,0.538,0.179,0.18,0.496
		C161.679,18.792,161.629,18.623,161.662,18.423z"/>
	<path fill-rule="evenodd" clip-rule="evenodd" fill="#DFE0E2" d="M86.045,9.417c0.852,0.131,0.971,0.795,0.972,1.455
		c0.014,7.716,0.009,15.433,0.007,23.148c0,0.161-0.003,0.328-0.041,0.483c-0.354,1.459-2.041,2.058-4.802,1.71
		c-1.146-0.145-1.967-1.104-1.969-2.385c-0.01-6.539-0.005-13.077-0.006-19.616c0-1.096-0.009-2.193,0.006-3.29
		c0.007-0.53,0.021-1.08,0.683-1.268c0.011,6.923,0.018,13.847,0.042,20.77c0.001,0.422-0.183,0.895,0.198,1.266
		c0.024,0.525,0.058,1.051,0.072,1.577c0.037,1.42,0.507,1.909,1.885,1.948c2.675,0.075,2.952-0.203,2.936-2.967
		c-0.001-0.242-0.024-0.484-0.036-0.727c0-6.967,0-13.932,0.004-20.898C85.996,10.223,86.028,9.82,86.045,9.417z"/>
	<path fill-rule="evenodd" clip-rule="evenodd" fill="#9C9EA4" d="M85.991,31.523c0.012,0.242,0.035,0.484,0.036,0.727
		c0.016,2.764-0.26,3.042-2.936,2.967c-1.378-0.039-1.848-0.528-1.885-1.948c-0.014-0.526-0.047-1.052-0.072-1.577
		C82.754,31.635,84.373,31.579,85.991,31.523z"/>
	<path fill-rule="evenodd" clip-rule="evenodd" fill="#DFE0E2" d="M197.425,9.413c0.811,0.332,0.95,1.05,0.951,1.787
		c0.013,7.42,0.021,14.841-0.002,22.262c-0.005,1.683-1.062,2.688-2.742,2.754c-0.445,0.018-0.893,0.019-1.338,0
		c-1.674-0.071-2.716-1.084-2.721-2.776c-0.021-7.42-0.011-14.841-0.004-22.261c0.001-0.571,0.02-1.171,0.783-1.3
		c0.175,0.32,0.134,0.651,0.051,0.985c-0.509,0.226-0.342,0.688-0.343,1.064c-0.008,7.014-0.012,14.027-0.002,21.041
		c0.002,1.977,0.821,2.751,2.844,2.761c2.14,0.01,2.984-0.741,2.987-2.739c0.011-7.014,0.003-14.026,0.006-21.04
		c0-0.573,0.015-1.143-0.482-1.56C197.417,10.064,197.421,9.739,197.425,9.413z"/>
	<path fill-rule="evenodd" clip-rule="evenodd" fill="#C4CCCE" d="M197.413,10.39c0.497,0.417,0.482,0.986,0.482,1.56
		c-0.003,7.014,0.005,14.026-0.006,21.04c-0.003,1.998-0.848,2.749-2.987,2.739c-2.022-0.01-2.842-0.784-2.844-2.761
		c-0.01-7.014-0.006-14.027,0.002-21.041c0.001-0.377-0.166-0.838,0.343-1.064c0.033,0.481,0.098,0.963,0.099,1.444
		c0.007,5.991,0,11.983,0.013,17.974c0.001,0.46-0.19,0.984,0.269,1.364c0,0.564,0.008,1.129,0.001,1.693
		c-0.014,1.081,0.488,1.629,1.594,1.665c2.535,0.081,2.787-0.145,2.786-2.651c0-0.242-0.001-0.484-0.002-0.727
		c0.382-0.417,0.211-0.929,0.213-1.396C197.396,23.616,197.402,17.003,197.413,10.39z"/>
	<path fill-rule="evenodd" clip-rule="evenodd" fill="#B4B7BA" d="M197.162,31.626c0.001,0.242,0.002,0.484,0.002,0.727
		c0.001,2.507-0.251,2.732-2.786,2.651c-1.105-0.036-1.607-0.584-1.594-1.665c0.007-0.564-0.001-1.129-0.001-1.693
		c0.243,0.001,0.487,0.002,0.73,0.002c0,0.401-0.021,0.805,0.004,1.205c0.054,0.906,0.55,1.407,1.456,1.407
		c0.906,0.001,1.403-0.5,1.457-1.406c0.024-0.4,0.004-0.804,0.004-1.205C196.677,31.641,196.919,31.634,197.162,31.626z"/>
	<path fill-rule="evenodd" clip-rule="evenodd" fill="#ADB1B4" d="M196.435,31.648c0,0.401,0.021,0.805-0.004,1.205
		c-0.054,0.906-0.551,1.407-1.457,1.406c-0.906,0-1.402-0.501-1.456-1.407c-0.024-0.4-0.004-0.804-0.004-1.205
		C194.487,31.648,195.461,31.648,196.435,31.648z"/>
	<path fill-rule="evenodd" clip-rule="evenodd" fill="#C4CCCE" d="M263.667,33.521c-0.132,0.081-0.341,0.133-0.385,0.248
		c-0.697,1.819-3.169,2.606-4.779,1.503c-0.86-0.59-0.856-1.576-0.868-2.408c-0.066-4.419-0.031-8.84-0.033-13.26
		c0-0.295,0.016-0.574,0.347-0.701c0.242,3.817,0.026,7.64,0.116,11.458c0.011,0.462-0.286,1.103,0.501,1.285
		c0.002,0.564,0.013,1.129,0.003,1.692c-0.013,0.711,0.399,1.16,0.993,1.368c1.809,0.636,2.908-0.176,2.913-2.093
		c0-0.322,0.002-0.645,0.004-0.968c0.63-0.167,0.441-0.688,0.444-1.095c0.022-2.655,0.025-5.311,0.035-7.966
		c1.15-0.795,2.366-1.392,3.785-1.605c0.465-0.07,0.852-0.588,0.846-1.199c-0.005-0.523,0.004-1.047,0.006-1.57
		c0.484-0.037,0.463-0.419,0.514-0.752c1.256,2.158,0.216,4.321-2.188,4.638c-1.027,0.136-2.117,0.309-2.228,1.7
		C263.685,27.038,263.676,30.279,263.667,33.521z"/>
	<path fill-rule="evenodd" clip-rule="evenodd" fill="#AFB4B6" d="M267.595,18.211c-0.002,0.523-0.011,1.047-0.006,1.57
		c0.006,0.61-0.381,1.129-0.846,1.199c-1.419,0.213-2.635,0.81-3.785,1.605c-0.003-0.04-0.004-0.08-0.01-0.12
		C262.432,18.437,264.518,17.791,267.595,18.211z"/>
	<path fill-rule="evenodd" clip-rule="evenodd" fill="#AFB4B6" d="M262.479,31.646c-0.002,0.323-0.004,0.646-0.004,0.968
		c-0.005,1.917-1.104,2.729-2.913,2.093c-0.594-0.208-1.006-0.657-0.993-1.368c0.01-0.563-0.001-1.128-0.003-1.692
		C259.87,31.646,261.174,31.646,262.479,31.646z"/>
	<path fill-rule="evenodd" clip-rule="evenodd" fill="#F0F0F1" d="M263.667,33.521c0.009-3.241,0.018-6.482,0.026-9.724
		c1.009-0.514,1.851-1.431,3.15-1.246c0.256,0.036,0.543-0.124,0.811-0.208c1.01-0.319,1.438-1.179,1.347-2.063
		c-0.133-1.286,0.827-2.88-0.885-3.804c0-0.242,0-0.484-0.001-0.726c0.977,0.317,1.469,1.045,1.399,2.015
		c-0.095,1.338,0.449,2.752-0.426,4.011c-0.561,0.807-1.258,1.286-2.302,1.302c-1.854,0.025-2.608,0.849-2.61,2.719
		c-0.003,2.632,0.007,5.265-0.008,7.896c-0.003,0.404,0.198,0.944-0.476,1.067C263.685,34.347,263.676,33.934,263.667,33.521z"/>
	<path fill-rule="evenodd" clip-rule="evenodd" fill="#DFE0E2" d="M268.116,16.476c1.712,0.924,0.752,2.519,0.885,3.804
		c0.091,0.883-0.337,1.743-1.347,2.063c-0.268,0.084-0.555,0.244-0.811,0.208c-1.3-0.185-2.142,0.732-3.15,1.246
		c0.11-1.392,1.2-1.564,2.228-1.7c2.403-0.317,3.443-2.48,2.188-4.638C268.111,17.132,268.114,16.804,268.116,16.476z"/>
	<path fill-rule="evenodd" clip-rule="evenodd" fill="#E7E8E9" d="M31.953,27.697c-0.951-0.814-0.951-1.634,0-2.447
		C31.953,26.065,31.953,26.881,31.953,27.697z"/>
	<path fill-rule="evenodd" clip-rule="evenodd" fill="#E7E8E9" d="M69.731,28.423c0.37,0.381,0.064,0.437-0.238,0.495
		C69.489,28.712,69.531,28.529,69.731,28.423z"/>
	<path fill-rule="evenodd" clip-rule="evenodd" fill="#F0F0F1" d="M239.076,30.86c0.167,0.298,0.285,0.609,0.258,0.959
		c-0.004,0.168-0.008,0.335-0.012,0.502c-0.114-0.034-0.263-0.034-0.338-0.107c-1.285-1.266-1.228-1.236-2.087,0.289
		c-1.58,2.806-3.778,4.659-7.246,4.46c-1.052-0.061-2.166-0.206-3,0.72c-0.153-0.593,0.482-0.923,0.487-1.463
		c1.253-0.151,2.458,0.405,3.732,0.188c2.282-0.39,3.874-1.68,5.036-3.602c0.701-0.138,0.705-0.687,0.726-1.227
		c0.005-0.239,0.011-0.479,0.016-0.718c0.114-0.036,0.287-0.038,0.333-0.115c0.596-0.995,1.167-0.982,1.76,0.002
		C238.787,30.826,238.962,30.825,239.076,30.86z"/>
	<path fill-rule="evenodd" clip-rule="evenodd" fill="#E7E8E9" d="M227.139,36.22c-0.005,0.54-0.641,0.87-0.487,1.463
		c0,0.975-0.001,1.949-0.001,2.924c-0.405,0.342-0.186,0.808-0.242,1.219c-0.209,0.604-0.615,1.01-1.219,1.218
		c-0.411-0.004-0.821-0.008-1.232-0.012c0.071-0.096,0.13-0.264,0.214-0.277c1.96-0.319,1.883-1.868,1.98-3.29
		c0.046-0.678,0.043-1.364-0.001-2.042C226.103,36.68,226.396,36.28,227.139,36.22z"/>
	<path fill-rule="evenodd" clip-rule="evenodd" fill="#F0F0F1" d="M217.147,32.564c0.198-1.228,1.161-2.169,1.279-3.434
		c0.022-0.238,0.243-0.422,0.52-0.409c0.399,0.021,0.336,0.347,0.401,0.613c0.145,0.593-0.411,1.381,0.479,1.77
		c0,0.242,0,0.485,0,0.729c-0.162,0-0.324,0.001-0.485,0.001c-0.583-0.891-1.082-0.826-1.523,0.122
		C217.684,32.245,217.556,32.566,217.147,32.564z"/>
	<path fill-rule="evenodd" clip-rule="evenodd" fill="#E7E8E9" d="M219.341,31.834c0.161,0,0.323-0.001,0.485-0.001
		c0,2.762,0,5.524,0.001,8.287c-0.162-0.001-0.324-0.001-0.486-0.001C219.341,37.357,219.341,34.596,219.341,31.834z"/>
	<path fill-rule="evenodd" clip-rule="evenodd" fill="#F0F0F1" d="M223.957,43.031c0.411,0.004,0.821,0.008,1.232,0.012
		c-0.061,0.51-0.44,0.487-0.809,0.486c-0.922-0.001-1.845-0.017-2.766,0.007c-0.534,0.013-0.862-0.136-0.813-0.735
		C221.835,43.145,222.901,43.014,223.957,43.031z"/>
	<path fill-rule="evenodd" clip-rule="evenodd" fill="#F0F0F1" d="M240.065,32.801c0.571,0.4,1.057,0.887,1.457,1.458
		c0.078,0.167,0.156,0.333,0.235,0.5c-1.206-0.256-1.937-0.987-2.193-2.192C239.731,32.645,239.898,32.723,240.065,32.801z"/>
	<path fill-rule="evenodd" clip-rule="evenodd" fill="#F0F0F1" d="M219.341,40.119c0.162,0,0.324,0,0.486,0.001
		c0,0.162,0.001,0.324,0.002,0.486c-0.253,0.164-0.251,0.326,0.003,0.487c-0.002,0.244-0.003,0.487-0.005,0.731
		C218.559,41.572,219.119,40.797,219.341,40.119z"/>
	<path fill-rule="evenodd" clip-rule="evenodd" fill="#E7E8E9" d="M241.758,34.759c-0.079-0.167-0.157-0.333-0.235-0.5
		c0.697,0.013,1.198,0.32,1.468,0.976c-0.329-0.077-0.658-0.155-0.988-0.232C241.921,34.921,241.839,34.84,241.758,34.759z"/>
	<path fill-rule="evenodd" clip-rule="evenodd" fill="#F0F0F1" d="M226.408,41.825c0.057-0.411-0.163-0.877,0.242-1.219
		C226.967,41.092,227.171,41.555,226.408,41.825z"/>
	<path fill-rule="evenodd" clip-rule="evenodd" fill="#E7E8E9" d="M240.065,32.801c-0.167-0.078-0.334-0.156-0.501-0.234
		c-0.081-0.082-0.161-0.163-0.242-0.245c0.004-0.167,0.008-0.334,0.012-0.502C239.945,31.873,240.078,32.283,240.065,32.801z"/>
	<path fill-rule="evenodd" clip-rule="evenodd" fill="#E7E8E9" d="M200.104,30.362c0.518,0.046,0.589,0.503,0.765,0.849
		c1.614,3.179,4.126,4.787,7.763,4.804c2.348,0.011,4.511-0.259,6.357-1.841c0.159-0.136,0.459-0.106,0.693-0.154
		c-0.242,0.327-0.485,0.654-0.728,0.982c-0.244,0.162-0.487,0.324-0.731,0.487c-0.386,0.037-0.726,0.17-0.975,0.483
		c-0.533,0.285-1.063,0.583-1.705,0.492c-0.567,0.092-1.192-0.226-1.706,0.243c-2.597,0.232-4.999-0.241-7.059-1.947
		C201.383,33.604,200.177,32.327,200.104,30.362z"/>
	<path fill-rule="evenodd" clip-rule="evenodd" fill="#F4F4F5" d="M209.838,36.708c0.514-0.469,1.139-0.151,1.706-0.243
		C211.082,37.294,210.463,37.021,209.838,36.708z"/>
	<path fill-rule="evenodd" clip-rule="evenodd" fill="#F0F0F1" d="M213.249,35.973c0.249-0.313,0.589-0.446,0.975-0.483
		C214.073,36.002,213.851,36.369,213.249,35.973z"/>
	<path fill-rule="evenodd" clip-rule="evenodd" fill="#132C43" d="M76.82,14.78c0,0.648,0,1.296,0,1.945
		c0.002,0.405,0.003,0.811,0.005,1.215c-0.017,4.152-0.029,8.306-0.06,12.458c-0.003,0.424,0.166,0.89-0.183,1.271
		c-0.176,0.001-0.352,0.003-0.528,0.005c-1.226,0.01-2.452,0.02-3.678,0.029c-0.143-0.055-0.285-0.109-0.427-0.164
		c-0.008-4.775-0.016-9.55-0.023-14.326c0.024-1.196,0.049-2.393,0.073-3.589c1.6,0.02,3.214-0.318,4.797,0.175
		C76.804,14.127,76.813,14.454,76.82,14.78z"/>
	<path fill-rule="evenodd" clip-rule="evenodd" fill="#9C9EA4" d="M76.796,13.8c-1.583-0.493-3.197-0.156-4.797-0.175
		c-0.69-1.083,0.046-1.983,0.375-2.936c1.265,0.924,2.565,0.938,3.896,0.15C76.932,11.74,76.956,12.754,76.796,13.8z"/>
	<path fill-rule="evenodd" clip-rule="evenodd" fill="#E7E8E9" d="M24.893,36.22c-0.08-0.166-0.159-0.331-0.238-0.497
		c1.091,0.004,2.182,0.016,3.273,0.009c1.415-0.009,2.017-0.654,2.097-2.043c0.068-1.187-0.292-2.404,0.232-3.56
		c0.492,1.496,0.34,3.04,0.103,4.525c-0.153,0.956-0.996,1.55-2.063,1.563C27.162,36.23,26.028,36.22,24.893,36.22z"/>
	<path fill-rule="evenodd" clip-rule="evenodd" fill="#E7E8E9" d="M30.26,27.692c-0.388-0.813-0.388-1.625,0-2.438
		C30.949,25.911,30.949,27.035,30.26,27.692z"/>
	<path fill-rule="evenodd" clip-rule="evenodd" fill="#E7E8E9" d="M219.828,18.188c0.174,0.081,0.178,0.162,0.002,0.246
		C219.83,18.353,219.829,18.271,219.828,18.188z"/>
	<path fill-rule="evenodd" clip-rule="evenodd" fill="#D3D6D7" d="M14.656,34.762c-0.49-0.26-0.65-0.717-0.728-1.223
		C14.619,33.681,14.626,34.228,14.656,34.762z"/>
	<path fill-rule="evenodd" clip-rule="evenodd" fill="#C4CCCE" d="M20.015,30.609c-0.343,1.001-0.051,2.261-1.198,2.934
		C19.186,32.553,19.171,31.406,20.015,30.609z"/>
	<path fill-rule="evenodd" clip-rule="evenodd" fill="#E7E8E9" d="M23.914,27.938c-0.892-0.939-1.419-0.699-1.721,0.495
		c-0.083,0.326-0.241,0.706-0.703,0.725c0.367-1.061,0.723-2.126,1.105-3.182c0.141-0.39,0.361-0.757,0.868-0.69
		c0.614,0.081,0.435,0.586,0.451,0.954C23.938,26.805,23.916,27.371,23.914,27.938z"/>
	<path fill-rule="evenodd" clip-rule="evenodd" fill="#E7E8E9" d="M239.076,30.86c-0.114-0.035-0.289-0.034-0.335-0.111
		c-0.593-0.984-1.164-0.997-1.76-0.002c-0.046,0.077-0.219,0.079-0.333,0.115c0.235-0.884,0.66-1.717,0.731-2.646
		c0.02-0.263,0.112-0.47,0.413-0.496c0.349-0.031,0.481,0.155,0.562,0.479C238.575,29.091,238.833,29.974,239.076,30.86z"/>
	<path fill-rule="evenodd" clip-rule="evenodd" fill="#E7E8E9" d="M236.633,31.58c-0.021,0.54-0.024,1.089-0.726,1.227
		C236.075,32.354,235.972,31.74,236.633,31.58z"/>
	<path fill-rule="evenodd" clip-rule="evenodd" fill="#E7E8E9" d="M219.832,41.094c-0.254-0.161-0.256-0.323-0.003-0.487
		C220.078,40.768,220.086,40.93,219.832,41.094z"/>
	<path fill-rule="evenodd" clip-rule="evenodd" fill="#B4B7BA" d="M143.562,34.268c-1.486-0.448-2.716-1.223-3.411-2.679
		C141.372,32.374,142.538,33.23,143.562,34.268z"/>
	<path fill-rule="evenodd" clip-rule="evenodd" fill="#B4B7BA" d="M148.433,34.753c-1.444,0.379-2.861,0.526-4.146-0.479
		C145.639,34.697,147.091,34.248,148.433,34.753z"/>
	<path fill-rule="evenodd" clip-rule="evenodd" fill="#B4B7BA" d="M152.086,31.106c1.019,0.859,1.02,1.41,0.004,1.948
		C152.089,32.405,152.087,31.756,152.086,31.106z"/>
	<path fill-rule="evenodd" clip-rule="evenodd" fill="#B4B7BA" d="M151.356,33.783c-0.593,0.877-1.531,0.884-2.438,0.969
		C149.571,34.028,150.515,34.033,151.356,33.783z"/>
	<path fill-rule="evenodd" clip-rule="evenodd" fill="#D3D6D7" d="M71.949,31.54c0.143,0.055,0.285,0.109,0.427,0.164
		c0.028,0.698,0.056,1.396,0.084,2.096c-0.07,0.833,0.384,1.131,1.147,1.186c2.528,0.183,2.873-0.115,2.928-2.597
		c0.005-0.24,0.03-0.479,0.046-0.719c0.349-0.382,0.18-0.848,0.183-1.271c0.031-4.152,0.043-8.306,0.06-12.458
		c0.596,0.114,0.452,0.592,0.453,0.971c0.007,4.913,0.015,9.826-0.002,14.738c-0.005,1.376-0.729,2.05-2.131,2.083
		c-0.528,0.012-1.057-0.025-1.583,0.007c-1.063,0.067-1.633-0.594-1.804-1.462C71.583,33.387,71.475,32.422,71.949,31.54z"/>
	<path fill-rule="evenodd" clip-rule="evenodd" fill="#ADB1B4" d="M72.461,33.8c-0.028-0.699-0.057-1.397-0.084-2.096
		c1.226-0.01,2.452-0.02,3.678-0.029c0.006,0.324,0.017,0.648,0.016,0.974c-0.006,1.473-0.663,2.004-2.127,1.894
		C73.301,34.493,73.07,33.803,72.461,33.8z"/>
	<path fill-rule="evenodd" clip-rule="evenodd" fill="#9C9EA4" d="M72.461,33.8c0.609,0.003,0.84,0.693,1.482,0.742
		c1.464,0.11,2.121-0.421,2.127-1.894c0.001-0.325-0.01-0.649-0.016-0.974c0.176-0.002,0.352-0.004,0.528-0.005
		c-0.016,0.239-0.042,0.479-0.046,0.719c-0.056,2.481-0.4,2.779-2.928,2.597C72.845,34.931,72.391,34.633,72.461,33.8z"/>
</g>
</svg>
